<?xml version="1.0" encoding="UTF-8"?>
<!DOCTYPE svg PUBLIC "-//W3C//DTD SVG 1.1//EN" "http://www.w3.org/Graphics/SVG/1.1/DTD/svg11.dtd">
<!-- Creator: CorelDRAW -->
<svg xmlns="http://www.w3.org/2000/svg" xml:space="preserve" width="6.82666in" height="6.82666in" style="shape-rendering:geometricPrecision; text-rendering:geometricPrecision; image-rendering:optimizeQuality; fill-rule:evenodd; clip-rule:evenodd"
viewBox="0 0 6.82666 6.82666"
 xmlns:xlink="http://www.w3.org/1999/xlink">
 <defs>
  <style type="text/css">
   <![CDATA[
    .fil0 {fill:none}
    .fil1 {fill:#424242}
    .fil2 {fill:#64B5F6}
   ]]>
  </style>
 </defs>
 <g id="Layer_x0020_1">
  <metadata id="CorelCorpID_0Corel-Layer"/>
  <rect class="fil0" width="6.82666" height="6.82666"/>
  <rect class="fil0" x="0.853331" y="0.853331" width="5.12" height="5.12"/>
  <path class="fil1" d="M1.6654 5.03581c-0.373772,-0.373776 -0.612402,-0.858587 -0.681378,-1.38254 -0.0689764,-0.523937 0.0364016,-1.05385 0.30065,-1.51154 0.318961,-0.552453 0.839531,-0.951878 1.45562,-1.11696 0.298323,-0.079937 0.610185,-0.101909 0.916713,-0.0638386 0.234469,0.0291181 0.462087,0.0928583 0.676744,0.188465l-0.0328504 -0.122591 0.302437 -0.080815 0.171728 0.640902 -0.641106 0.171783 -0.080811 -0.302437 0.124917 -0.0334724c-0.17815,-0.0761693 -0.366193,-0.127264 -0.55963,-0.151244 -0.266591,-0.0330472 -0.537819,-0.0138504 -0.79726,0.0556654 -0.535791,0.143567 -0.988346,0.490752 -1.26574,0.971209 -0.229791,0.398 -0.321425,0.858709 -0.261445,1.31431 0.0599764,0.455579 0.268043,0.87665 0.592953,1.20156l0.0353504 0.0353543 -0.221539 0.221539 -0.0353543 -0.0353504z"/>
  <path class="fil1" d="M5.26454 1.79084c0.373772,0.373776 0.612402,0.858587 0.681378,1.38254 0.0689764,0.523937 -0.0364016,1.05385 -0.30065,1.51154 -0.318961,0.552453 -0.839531,0.951878 -1.45562,1.11696 -0.298323,0.079937 -0.610185,0.101909 -0.916713,0.0638386 -0.234469,-0.0291181 -0.462087,-0.0928583 -0.676744,-0.188465l0.0328504 0.122591 -0.302437 0.080815 -0.171728 -0.640902 0.641106 -0.171783 0.080811 0.302437 -0.124917 0.0334724c0.17815,0.0761693 0.366193,0.127264 0.55963,0.151244 0.266591,0.0330472 0.537819,0.0138504 0.79726,-0.0556654 0.535791,-0.143567 0.988346,-0.490752 1.26574,-0.971209 0.229791,-0.398 0.321425,-0.858709 0.261445,-1.31431 -0.0599764,-0.455579 -0.268043,-0.87665 -0.592953,-1.20156l-0.0353504 -0.0353543 0.221539 -0.221539 0.0353543 0.0353504z"/>
  <path class="fil2" d="M3.08448 3.32986c0.0504646,0.025563 0.094685,0.0612638 0.130693,0.108551 0.0600787,0.0788937 0.0833543,0.17324 0.0833543,0.27128 0,0.144862 -0.0534921,0.268417 -0.158264,0.368402 -0.109528,0.104524 -0.245126,0.149996 -0.395654,0.149996 -0.135504,0 -0.259209,-0.0389134 -0.360488,-0.130224 -0.0990906,-0.0893465 -0.151689,-0.203882 -0.164634,-0.336291l-0.00469685 -0.0480669 0.277646 -0.0368819 0.00932677 0.0457087c0.0137362,0.0673307 0.0396299,0.150232 0.0922165,0.197941 0.0431102,0.0391102 0.0936732,0.0559843 0.151677,0.0559843 0.0719724,0 0.132776,-0.0238346 0.183543,-0.0750512 0.0515,-0.0519567 0.0746614,-0.114374 0.0746614,-0.187335 0,-0.0670591 -0.019752,-0.125563 -0.0677244,-0.173083 -0.0484055,-0.0479488 -0.107449,-0.0677126 -0.175157,-0.0677126 -0.0379961,0 -0.0802283,0.00925591 -0.116811,0.0188976l-0.0717087 0.0188976 0.0361614 -0.283764 0.0490354 0.0056063c0.00779921,0.000893701 0.0160591,0.00176772 0.0239213,0.00176772 0.0666142,0 0.127929,-0.0169055 0.183791,-0.0532165 0.0527047,-0.0342598 0.0712795,-0.085311 0.0712795,-0.146835 0,-0.0513622 -0.0161024,-0.0952362 -0.0533386,-0.131197 -0.0393031,-0.0379528 -0.0877323,-0.0524843 -0.141835,-0.0524843 -0.0550472,0 -0.103717,0.0156654 -0.144035,0.053622 -0.046815,0.0440709 -0.0674331,0.111618 -0.0767756,0.173402l-0.00767323 0.0507598 -0.283402 -0.0505472 0.00891732 -0.049315c0.0221378,-0.122461 0.0736732,-0.233937 0.16972,-0.315484 0.0939016,-0.0797205 0.207,-0.113571 0.329417,-0.113571 0.0868819,0 0.170598,0.0185433 0.248039,0.0580472 0.0739016,0.0377008 0.135087,0.0909843 0.177902,0.162276 0.0403622,0.0672087 0.0618071,0.140244 0.0618071,0.218673 0,0.0737402 -0.0199764,0.142299 -0.0604252,0.20398 -0.0222677,0.0339567 -0.0495433,0.062815 -0.0804882,0.0872677zm0.37037 0.87176l0 -1.59574 0.565063 0c0.0888701,0 0.19078,0.00287008 0.27763,0.0228701 0.0888976,0.0204724 0.170835,0.0582677 0.240563,0.117539 0.0878307,0.0746614 0.150622,0.168299 0.191303,0.276051 0.0449331,0.119028 0.0620748,0.246469 0.0620748,0.373224 0,0.106291 -0.0112402,0.214465 -0.0422047,0.316457 -0.0247835,0.0816496 -0.0591102,0.163394 -0.109386,0.232811 -0.0412244,0.0569173 -0.0902402,0.108547 -0.14889,0.147717 -0.0588898,0.0393346 -0.125626,0.0654567 -0.194201,0.0822165 -0.0819528,0.0200276 -0.167972,0.0268504 -0.252165,0.0268504l-0.589787 0zm0.297799 -0.276555l0.26935 0c0.0679331,0 0.151665,-0.00361417 0.21665,-0.0250039 0.041878,-0.0137874 0.0829055,-0.034189 0.114425,-0.0655906 0.0465512,-0.046378 0.077122,-0.107508 0.0975079,-0.169339 0.0284488,-0.0862913 0.0368346,-0.182283 0.0368346,-0.272697 0,-0.107437 -0.0123228,-0.240543 -0.0696378,-0.334382 -0.0392402,-0.064252 -0.0913228,-0.120598 -0.162791,-0.148354 -0.0641339,-0.0249134 -0.169728,-0.0272559 -0.237862,-0.0272559l-0.264476 0 0 1.04262z"/>
 </g>
</svg>
