<?xml version="1.0" encoding="UTF-8"?>
<!DOCTYPE svg PUBLIC "-//W3C//DTD SVG 1.1//EN" "http://www.w3.org/Graphics/SVG/1.1/DTD/svg11.dtd">
<!-- Creator: CorelDRAW -->
<svg xmlns="http://www.w3.org/2000/svg" xml:space="preserve" width="6.82666in" height="6.82666in" style="shape-rendering:geometricPrecision; text-rendering:geometricPrecision; image-rendering:optimizeQuality; fill-rule:evenodd; clip-rule:evenodd"
viewBox="0 0 6.82666 6.82666"
 xmlns:xlink="http://www.w3.org/1999/xlink">
 <defs>
  <style type="text/css">
   <![CDATA[
    .fil0 {fill:none}
    .fil1 {fill:#424242;fill-rule:nonzero}
    .fil2 {fill:#64B5F6;fill-rule:nonzero}
   ]]>
  </style>
 </defs>
 <g id="Layer_x0020_1">
  <metadata id="CorelCorpID_0Corel-Layer"/>
  <rect class="fil0" width="6.82666" height="6.82666"/>
  <rect class="fil0" x="0.853331" y="0.853331" width="5.12" height="5.12"/>
  <path class="fil1" d="M5.22667 2.24l0 0.635402c0,0.0589094 -0.0477598,0.106669 -0.106669,0.106669l-0.8 0 0 2.75126c0,0.0605866 -0.0202126,0.117035 -0.0527717,0.159161 -0.0385354,0.049878 -0.0939488,0.0808386 -0.156925,0.0808386l-0.473937 0c-0.0589094,0 -0.106669,-0.0477598 -0.106669,-0.106669l0 -1.49333 -0.446055 0 0 1.49333c0,0.0589094 -0.0477598,0.106669 -0.106669,0.106669l-0.473941 0c-0.0629764,0 -0.118394,-0.0309646 -0.156929,-0.0808346 -0.0325551,-0.0421339 -0.0527677,-0.0985866 -0.0527677,-0.159165l0 -2.75126 -0.799996 0c-0.0589094,0 -0.106669,-0.0477598 -0.106669,-0.106669l0 -0.635402c0,-0.0589094 0.0477598,-0.106669 0.106669,-0.106669l3.62666 0c0.0589094,0 0.106669,0.0477598 0.106669,0.106669z"/>
  <path class="fil2" d="M3.30667 0.838114c0.176988,0 0.33724,0.071752 0.453232,0.187748 0.115996,0.115992 0.187748,0.276244 0.187748,0.453232 0,0.176984 -0.071748,0.337232 -0.187748,0.453232 -0.115992,0.115996 -0.276244,0.187748 -0.453232,0.187748 -0.176988,0 -0.33724,-0.071752 -0.453232,-0.187748 -0.116,-0.116 -0.187748,-0.276248 -0.187748,-0.453232 0,-0.176988 0.071752,-0.33724 0.187748,-0.453232 0.115992,-0.115996 0.276244,-0.187748 0.453232,-0.187748z"/>
 </g>
</svg>
