<?xml version="1.0" encoding="UTF-8"?>
<!DOCTYPE svg PUBLIC "-//W3C//DTD SVG 1.1//EN" "http://www.w3.org/Graphics/SVG/1.1/DTD/svg11.dtd">
<!-- Creator: CorelDRAW -->
<svg xmlns="http://www.w3.org/2000/svg" xml:space="preserve" width="6.82666in" height="6.82666in" style="shape-rendering:geometricPrecision; text-rendering:geometricPrecision; image-rendering:optimizeQuality; fill-rule:evenodd; clip-rule:evenodd"
viewBox="0 0 6.82666 6.82666"
 xmlns:xlink="http://www.w3.org/1999/xlink">
 <defs>
  <style type="text/css">
   <![CDATA[
    .fil0 {fill:none}
    .fil2 {fill:#424242;fill-rule:nonzero}
    .fil1 {fill:#64B5F6;fill-rule:nonzero}
   ]]>
  </style>
 </defs>
 <g id="Layer_x0020_1">
  <metadata id="CorelCorpID_0Corel-Layer"/>
  <rect class="fil0" width="6.82666" height="6.82666"/>
  <rect class="fil0" x="0.853331" y="0.853331" width="5.12" height="5.12"/>
  <path class="fil1" d="M3.41333 0.959996c0.677457,0 1.29079,0.274602 1.73476,0.718575 0.443972,0.443969 0.718575,1.0573 0.718575,1.73476 0,0.677457 -0.274602,1.29079 -0.718575,1.73476 -0.443969,0.443972 -1.0573,0.718575 -1.73476,0.718575 -0.677457,0 -1.29079,-0.274602 -1.73476,-0.718575 -0.443972,-0.443969 -0.718575,-1.0573 -0.718575,-1.73476 0,-0.677457 0.274602,-1.29079 0.718575,-1.73476 0.443969,-0.443972 1.0573,-0.718575 1.73476,-0.718575zm1.58393 0.869409c-0.40535,-0.405354 -0.965354,-0.656071 -1.58393,-0.656071 -0.618571,0 -1.17857,0.250717 -1.58393,0.656071 -0.405354,0.40535 -0.656071,0.965354 -0.656071,1.58393 0,0.618571 0.250717,1.17857 0.656071,1.58393 0.40535,0.405354 0.965354,0.656071 1.58393,0.656071 0.618571,0 1.17857,-0.250717 1.58393,-0.656071 0.405354,-0.40535 0.656071,-0.965354 0.656071,-1.58393 0,-0.618571 -0.250717,-1.17857 -0.656071,-1.58393z"/>
  <path class="fil2" d="M1.92 4.93681l0 -1.28882c0,-0.0646417 0.0263661,-0.123339 0.0688504,-0.165815 0.0424843,-0.0424843 0.101177,-0.0688504 0.165819,-0.0688504l2.51734 0c0.0646457,0 0.123343,0.0263701 0.165815,0.0688504 0.0424843,0.0424764 0.0688504,0.101173 0.0688504,0.165815l0 1.28882c-0.399815,0.392016 -0.932618,0.60985 -1.49334,0.60985 -0.560717,0 -1.09352,-0.217835 -1.49333,-0.609846z"/>
  <path class="fil2" d="M3.41333 1.56602c0.240315,0 0.457906,0.0974173 0.615406,0.254921 0.1575,0.1575 0.254921,0.375087 0.254921,0.615402 0,0.240315 -0.0974173,0.457906 -0.254921,0.615406 -0.1575,0.1575 -0.375087,0.254921 -0.615406,0.254921 -0.240315,0 -0.457902,-0.0974213 -0.615402,-0.254921 -0.157504,-0.1575 -0.254921,-0.375091 -0.254921,-0.615406 0,-0.240315 0.0974173,-0.457902 0.254921,-0.615402 0.1575,-0.157504 0.375087,-0.254921 0.615402,-0.254921z"/>
 </g>
</svg>
