<?xml version="1.0" encoding="UTF-8"?>
<!DOCTYPE svg PUBLIC "-//W3C//DTD SVG 1.1//EN" "http://www.w3.org/Graphics/SVG/1.1/DTD/svg11.dtd">
<!-- Creator: CorelDRAW -->
<svg xmlns="http://www.w3.org/2000/svg" xml:space="preserve" width="6.82666in" height="6.82666in" style="shape-rendering:geometricPrecision; text-rendering:geometricPrecision; image-rendering:optimizeQuality; fill-rule:evenodd; clip-rule:evenodd"
viewBox="0 0 6.82666 6.82666"
 xmlns:xlink="http://www.w3.org/1999/xlink">
 <defs>
  <style type="text/css">
   <![CDATA[
    .fil0 {fill:none}
    .fil1 {fill:#424242}
    .fil2 {fill:#64B5F6}
    .fil3 {fill:#424242;fill-rule:nonzero}
   ]]>
  </style>
 </defs>
 <g id="Layer_x0020_1">
  <metadata id="CorelCorpID_0Corel-Layer"/>
  <rect class="fil0" width="6.82666" height="6.82666"/>
  <rect class="fil0" x="0.853331" y="0.853331" width="5.12" height="5.12"/>
  <polygon class="fil1" points="2.52389,4.48231 5.36199,4.48231 5.62666,2.98333 5.01333,2.98333 5.01333,2.67 6,2.67 5.96757,2.85369 5.62467,4.79564 2.28376,4.79564 2.25262,4.67941 1.4266,1.59667 0.963335,1.59667 0.963335,1.28333 1.66673,1.28333 1.69787,1.39956 "/>
  <polygon class="fil2" points="4.15667,2.0337 4.15667,2.67 4.8,2.67 4.8,2.98333 4.15667,2.98333 4.15667,3.63689 3.84333,3.63689 3.84333,2.98333 3.20003,2.98333 3.20003,2.67 3.84333,2.67 3.84333,2.0337 "/>
  <path class="fil3" d="M2.95249 4.85333c0.0883504,0 0.168354,0.0358268 0.226264,0.0937362 0.0579094,0.0579094 0.0937362,0.137913 0.0937362,0.226264 0,0.0883543 -0.0358268,0.168358 -0.0937362,0.226264 -0.0579094,0.0579094 -0.137913,0.0937362 -0.226264,0.0937362 -0.0883543,0 -0.168358,-0.0358268 -0.226264,-0.0937362 -0.0579094,-0.0579055 -0.0937362,-0.137909 -0.0937362,-0.226264 0,-0.0883504 0.0358268,-0.168354 0.0937362,-0.226264 0.0579055,-0.0579094 0.137909,-0.0937362 0.226264,-0.0937362z"/>
  <path class="fil3" d="M4.85984 4.85333c0.0883543,0 0.168358,0.0358268 0.226264,0.0937362 0.0579094,0.0579094 0.0937362,0.137913 0.0937362,0.226264 0,0.0883543 -0.0358268,0.168358 -0.0937362,0.226264 -0.0579055,0.0579094 -0.137909,0.0937362 -0.226264,0.0937362 -0.0883504,0 -0.168354,-0.0358268 -0.226264,-0.0937362 -0.0579094,-0.0579055 -0.0937362,-0.137909 -0.0937362,-0.226264 0,-0.0883504 0.0358268,-0.168354 0.0937362,-0.226264 0.0579094,-0.0579094 0.137913,-0.0937362 0.226264,-0.0937362z"/>
 </g>
</svg>
