<?xml version="1.0" encoding="UTF-8"?>
<!DOCTYPE svg PUBLIC "-//W3C//DTD SVG 1.1//EN" "http://www.w3.org/Graphics/SVG/1.1/DTD/svg11.dtd">
<!-- Creator: CorelDRAW -->
<svg xmlns="http://www.w3.org/2000/svg" xml:space="preserve" width="6.82666in" height="6.82666in" style="shape-rendering:geometricPrecision; text-rendering:geometricPrecision; image-rendering:optimizeQuality; fill-rule:evenodd; clip-rule:evenodd"
viewBox="0 0 6.82666 6.82666"
 xmlns:xlink="http://www.w3.org/1999/xlink">
 <defs>
  <style type="text/css">
   <![CDATA[
    .fil0 {fill:none}
    .fil1 {fill:#424242}
    .fil3 {fill:#64B5F6}
    .fil2 {fill:#64B5F6;fill-rule:nonzero}
   ]]>
  </style>
 </defs>
 <g id="Layer_x0020_1">
  <metadata id="CorelCorpID_0Corel-Layer"/>
  <rect class="fil0" width="6.82666" height="6.82666"/>
  <rect class="fil0" x="0.853335" y="0.853327" width="5.12" height="5.12"/>
  <path class="fil1" d="M4.40624 1.60442c0.179941,0.17648 0.298354,0.424866 0.344689,0.694126l0.474071 2.75487 0.021437 0.124587 -0.126437 0 -3.41333 0 -0.126437 0 0.021437 -0.124587 0.474071 -2.75487c0.0463346,-0.269264 0.164748,-0.517646 0.344685,-0.694126 0.167665,-0.164437 0.386807,-0.266417 0.649205,-0.266417l0.237039 0 0 -0.32c0,-0.0589094 0.0477598,-0.106669 0.106669,-0.106669 0.0589094,0 0.106669,0.0477598 0.106669,0.106669l0 0.32 0.237035 0c0.262398,0 0.481535,0.10198 0.649201,0.266417zm-0.779571 1.86692l0 0.533335 -0.426669 0 0 -0.533335 -0.533331 0 0 -0.426669 0.533331 0 0 -0.533331 0.426669 0 0 0.533331 0.533335 0 0 0.426669 -0.533335 0zm-1.79993 1.0607l3.17319 0 0.0457795 0.22526 -3.26475 0 0.0457795 -0.22526z"/>
  <path class="fil2" d="M3.88206 5.2495c0.00190157,0.0171969 0.00288583,0.0346772 0.00288583,0.0523819 0,0.130224 -0.0527913,0.24813 -0.138142,0.333472 -0.0853425,0.0853504 -0.203252,0.138142 -0.333472,0.138142 -0.130224,0 -0.24813,-0.0527913 -0.333472,-0.138142 -0.0853504,-0.0853425 -0.138142,-0.203248 -0.138142,-0.333472 0,-0.0177047 0.000984252,-0.035185 0.00288583,-0.0523819 0.384941,0 0.552516,0 0.937457,0z"/>
  <polygon class="fil3" points="4.05333,3.15133 3.52,3.15133 3.52,2.618 3.30666,2.618 3.30666,3.15133 2.77333,3.15133 2.77333,3.36467 3.30666,3.36467 3.30666,3.898 3.52,3.898 3.52,3.36467 4.05333,3.36467 "/>
 </g>
</svg>
