<?xml version="1.0" encoding="UTF-8"?>
<!DOCTYPE svg PUBLIC "-//W3C//DTD SVG 1.1//EN" "http://www.w3.org/Graphics/SVG/1.1/DTD/svg11.dtd">
<!-- Creator: CorelDRAW -->
<svg xmlns="http://www.w3.org/2000/svg" xml:space="preserve" width="6.82666in" height="6.82666in" style="shape-rendering:geometricPrecision; text-rendering:geometricPrecision; image-rendering:optimizeQuality; fill-rule:evenodd; clip-rule:evenodd"
viewBox="0 0 6.82666 6.82666"
 xmlns:xlink="http://www.w3.org/1999/xlink">
 <defs>
  <style type="text/css">
   <![CDATA[
    .fil0 {fill:none}
    .fil2 {fill:#424242;fill-rule:nonzero}
    .fil1 {fill:#64B5F6;fill-rule:nonzero}
   ]]>
  </style>
 </defs>
 <g id="Layer_x0020_1">
  <metadata id="CorelCorpID_0Corel-Layer"/>
  <rect class="fil0" width="6.82666" height="6.82666"/>
  <rect class="fil0" x="0.853331" y="0.853331" width="5.12" height="5.12"/>
  <path class="fil1" d="M3.26179 0.966213l0.380256 0 0.106669 0 0 0.106669 0 0.395681c-0.0704488,-0.0103465 -0.141626,-0.0174291 -0.213339,-0.0212165l0 -0.267795 -0.166917 0 0 0.265024c-0.0716339,0.00138976 -0.142815,0.00605512 -0.213339,0.0139843l0 -0.385677 0 -0.106669 0.106669 0z"/>
  <path class="fil2" d="M3.41333 1.55076c0.603819,0 1.15049,0.24476 1.5462,0.640469 0.395709,0.395709 0.640469,0.942382 0.640469,1.5462 0,0.603819 -0.24476,1.15049 -0.640469,1.5462 -0.395709,0.395709 -0.942382,0.640469 -1.5462,0.640469 -0.603819,0 -1.15049,-0.24476 -1.5462,-0.640469 -0.395709,-0.395709 -0.640469,-0.942382 -0.640469,-1.5462 0,-0.603819 0.24476,-1.15049 0.640469,-1.5462 0.395709,-0.395709 0.942382,-0.640469 1.5462,-0.640469zm0.106669 0.73998c0,-0.0589094 -0.0477598,-0.106669 -0.106669,-0.106669 -0.0589094,0 -0.106669,0.0477598 -0.106669,0.106669l0 1.19281c-0.0331339,0.0139409 -0.0629646,0.0341772 -0.088,0.0592126 -0.0498228,0.0498228 -0.0806496,0.118657 -0.0806496,0.194669 0,0.0760118 0.0308268,0.144846 0.0806496,0.194669 0.0498228,0.0498228 0.118657,0.0806496 0.194669,0.0806496 0.0760118,0 0.144846,-0.0308268 0.194669,-0.0806496 0.0426575,-0.0426575 0.0713858,-0.099252 0.0787677,-0.162358l0.81576 -0.470965c0.0508543,-0.0292244 0.0683898,-0.0941457 0.0391654,-0.145 -0.0292244,-0.0508543 -0.0941457,-0.0683898 -0.145,-0.0391654l-0.772402 0.445933c-0.00517323,-0.00616142 -0.0106063,-0.0120984 -0.0162913,-0.0177835 -0.0250354,-0.0250354 -0.0548661,-0.0452717 -0.088,-0.0592126l0 -1.19281zm-0.0628346 1.40285c-0.0112087,-0.0112087 -0.0267087,-0.0181457 -0.0438346,-0.0181457 -0.017126,0 -0.032626,0.00693701 -0.0438346,0.0181457 -0.0112087,0.0112087 -0.0181457,0.0267087 -0.0181457,0.0438346 0,0.017126 0.00693701,0.032626 0.0181457,0.0438346 0.0112087,0.0112087 0.0267087,0.0181457 0.0438346,0.0181457 0.017126,0 0.032626,-0.00693701 0.0438346,-0.0181457 0.0112087,-0.0112087 0.0181457,-0.0267087 0.0181457,-0.0438346 0,-0.017126 -0.00693701,-0.032626 -0.0181457,-0.0438346z"/>
  <polygon class="fil1" points="2.88976,0.902567 4.01408,0.902567 4.01408,1.11591 2.88976,1.11591 "/>
  <path class="fil1" d="M4.64433 1.60787l0.422409 0.271063 -0.106319 0.165642c-0.125083,-0.114425 -0.261236,-0.213717 -0.405878,-0.296823l0.0897874 -0.139882z"/>
 </g>
</svg>
