<?xml version="1.0" encoding="UTF-8"?>
<!DOCTYPE svg PUBLIC "-//W3C//DTD SVG 1.1//EN" "http://www.w3.org/Graphics/SVG/1.1/DTD/svg11.dtd">
<!-- Creator: CorelDRAW -->
<svg xmlns="http://www.w3.org/2000/svg" xml:space="preserve" width="6.82666in" height="6.82666in" style="shape-rendering:geometricPrecision; text-rendering:geometricPrecision; image-rendering:optimizeQuality; fill-rule:evenodd; clip-rule:evenodd"
viewBox="0 0 6.82666 6.82666"
 xmlns:xlink="http://www.w3.org/1999/xlink">
 <defs>
  <style type="text/css">
   <![CDATA[
    .fil0 {fill:none}
    .fil1 {fill:#424242;fill-rule:nonzero}
    .fil2 {fill:#64B5F6;fill-rule:nonzero}
   ]]>
  </style>
 </defs>
 <g id="Layer_x0020_1">
  <metadata id="CorelCorpID_0Corel-Layer"/>
  <rect class="fil0" width="6.82666" height="6.82666"/>
  <rect class="fil0" x="0.853331" y="0.853331" width="5.12" height="5.12"/>
  <path class="fil1" d="M3.41333 1.55076c0.603819,0 1.15049,0.24476 1.5462,0.640469 0.395709,0.395709 0.640469,0.942382 0.640469,1.5462 0,0.513906 -0.177319,0.986394 -0.474075,1.35967l-3.07226 -3.07226c0.373276,-0.296756 0.845764,-0.474075 1.35967,-0.474075zm1.36425 3.89562c-0.373988,0.298945 -0.84824,0.477717 -1.36425,0.477717 -0.603819,0 -1.15049,-0.24476 -1.5462,-0.640469 -0.395709,-0.395709 -0.640469,-0.942382 -0.640469,-1.5462 0,-0.516008 0.178772,-0.99026 0.477717,-1.36425l3.0732 3.0732z"/>
  <path class="fil2" d="M3.26179 0.966213l0.380256 0 0.106669 0 0 0.106669 0 0.395681c-0.0704488,-0.0103465 -0.141626,-0.0174291 -0.213339,-0.0212165l0 -0.267795 -0.166917 0 0 0.264996c-0.0715906,0.00138976 -0.142772,0.0060748 -0.213339,0.0140039l0 -0.385669 0 -0.106669 0.106669 0z"/>
  <polygon class="fil2" points="2.88976,0.902567 4.01408,0.902567 4.01408,1.11591 2.88976,1.11591 "/>
  <path class="fil2" d="M1.97775 1.94893l-0.138079 -0.138079 0.335528 -0.226087 0.106346 0.157665c-0.102406,0.0582244 -0.200799,0.124614 -0.29426,0.198917l-0.00953543 0.00758268z"/>
  <path class="fil2" d="M4.73338 1.62169l0.416228 0.280465 -0.132713 0.195819c-0.121283,-0.118661 -0.253972,-0.222429 -0.395488,-0.31028l0.111972 -0.166004z"/>
  <line class="fil0" x1="1.49333" y1="1.81333" x2="5.38667" y2= "5.70666" />
  <path class="fil2" d="M1.59232 1.71434c-0.0546654,-0.0546654 -0.143303,-0.0546654 -0.197969,0 -0.0546654,0.0546654 -0.0546654,0.143303 0,0.197969l3.89333 3.89333c0.0546654,0.0546654 0.143303,0.0546654 0.197969,0 0.0546654,-0.0546654 0.0546654,-0.143303 0,-0.197969l-3.89333 -3.89333z"/>
 </g>
</svg>
