<?xml version="1.0" encoding="UTF-8"?>
<!DOCTYPE svg PUBLIC "-//W3C//DTD SVG 1.1//EN" "http://www.w3.org/Graphics/SVG/1.1/DTD/svg11.dtd">
<!-- Creator: CorelDRAW -->
<svg xmlns="http://www.w3.org/2000/svg" xml:space="preserve" width="6.82666in" height="6.82666in" style="shape-rendering:geometricPrecision; text-rendering:geometricPrecision; image-rendering:optimizeQuality; fill-rule:evenodd; clip-rule:evenodd"
viewBox="0 0 6.82666 6.82666"
 xmlns:xlink="http://www.w3.org/1999/xlink">
 <defs>
  <style type="text/css">
   <![CDATA[
    .fil0 {fill:none}
    .fil1 {fill:#424242;fill-rule:nonzero}
    .fil2 {fill:#64B5F6;fill-rule:nonzero}
   ]]>
  </style>
 </defs>
 <g id="Layer_x0020_1">
  <metadata id="CorelCorpID_0Corel-Layer"/>
  <rect class="fil0" width="6.82666" height="6.82666"/>
  <rect class="fil0" x="0.853331" y="0.853331" width="5.12" height="5.12"/>
  <rect class="fil0" x="0.853331" y="0.853331" width="5.12" height="5.12"/>
  <path class="fil1" d="M3.41333 1.55076c0.603819,0 1.15049,0.24476 1.5462,0.640469 0.395709,0.395709 0.640469,0.942382 0.640469,1.5462 0,0.603819 -0.24476,1.15049 -0.640469,1.5462 -0.395709,0.395709 -0.942382,0.640469 -1.5462,0.640469 -0.603819,0 -1.15049,-0.24476 -1.5462,-0.640469 -0.395709,-0.395709 -0.640469,-0.942382 -0.640469,-1.5462 0,-0.603819 0.24476,-1.15049 0.640469,-1.5462 0.395709,-0.395709 0.942382,-0.640469 1.5462,-0.640469zm-1.20458 2.27125c-0.0416496,-0.0416496 -0.109185,-0.0416496 -0.150835,0 -0.0416496,0.0416496 -0.0416496,0.109185 0,0.150835l0.746665 0.746665 -7.87402e-006 7.87402e-006c0.0416535,0.0416535 0.109197,0.0416535 0.15085,0l0.000590551 -0.000606299 1.81273 -1.81273c0.0416496,-0.0416496 0.0416496,-0.109185 0,-0.150835 -0.0416496,-0.0416496 -0.109185,-0.0416496 -0.150835,0l-1.73791 1.73791 -0.671248 -0.671248z"/>
  <path class="fil2" d="M3.26179 0.966213l0.380256 0 0.106669 0 0 0.106669 0 0.395681c-0.0704488,-0.0103465 -0.141626,-0.0174291 -0.213339,-0.0212165l0 -0.267795 -0.166917 0 0 0.265024c-0.0716339,0.00138976 -0.142815,0.00605512 -0.213339,0.0139843l0 -0.385677 0 -0.106669 0.106669 0z"/>
  <polygon class="fil2" points="2.88976,0.902567 4.01408,0.902567 4.01408,1.11591 2.88976,1.11591 "/>
  <path class="fil2" d="M1.8747 2.03681l-0.115736 -0.171587 0.416228 -0.280465 0.106303 0.157602c-0.14487,0.0823228 -0.281331,0.180815 -0.406795,0.294449z"/>
  <path class="fil2" d="M4.73338 1.62169l0.416228 0.280465 -0.134232 0.194315c-0.12087,-0.118039 -0.253043,-0.221295 -0.393969,-0.308776l0.111972 -0.166004z"/>
 </g>
</svg>
