<?xml version="1.0" encoding="UTF-8"?>
<!DOCTYPE svg PUBLIC "-//W3C//DTD SVG 1.1//EN" "http://www.w3.org/Graphics/SVG/1.1/DTD/svg11.dtd">
<!-- Creator: CorelDRAW -->
<svg xmlns="http://www.w3.org/2000/svg" xml:space="preserve" width="6.82666in" height="6.82666in" style="shape-rendering:geometricPrecision; text-rendering:geometricPrecision; image-rendering:optimizeQuality; fill-rule:evenodd; clip-rule:evenodd"
viewBox="0 0 6.82666 6.82666"
 xmlns:xlink="http://www.w3.org/1999/xlink">
 <defs>
  <style type="text/css">
   <![CDATA[
    .fil0 {fill:none}
    .fil1 {fill:#424242}
    .fil2 {fill:#64B5F6}
   ]]>
  </style>
 </defs>
 <g id="Layer_x0020_1">
  <metadata id="CorelCorpID_0Corel-Layer"/>
  <rect class="fil0" width="6.82666" height="6.82666"/>
  <rect class="fil0" x="0.853335" y="0.746661" width="5.12" height="5.12"/>
  <path class="fil1" d="M1.02804 1.27564l4.77059 0c0.0185866,0 0.0355748,0.00769291 0.0479606,0.0200787 0.0123858,0.0123858 0.0200787,0.029374 0.0200787,0.0479606l0 2.52517c0,0.0185866 -0.00769291,0.0355748 -0.0200787,0.0479606 -0.0123858,0.0123858 -0.029374,0.0200787 -0.0479606,0.0200787l-0.615087 0 -0.0926575 0 -0.0240551 0.0897795 -0.24976 0.932118 -0.554799 -0.960941 -0.0351969 -0.0609567 -0.0692283 0 -3.12981 0c-0.0185866,0 -0.0355748,-0.00769291 -0.0479606,-0.0200787 -0.0123858,-0.0123858 -0.0200787,-0.029374 -0.0200787,-0.0479606l0 -2.52517c0,-0.0185866 0.00769291,-0.0355748 0.0200787,-0.0479606 0.0123858,-0.0123858 0.029374,-0.0200787 0.0479606,-0.0200787zm2.42142 1.92679c0.130161,0.0176378 0.230539,0.129248 0.230539,0.264236 0,0.147236 -0.119429,0.266661 -0.266665,0.266661 -0.147236,0 -0.266661,-0.119425 -0.266661,-0.266661 0,-0.134984 0.100378,-0.246598 0.230539,-0.264236 -0.100591,-0.0171732 -0.177209,-0.104815 -0.177209,-0.210287l0 -1.15993c0,-0.117783 0.0955512,-0.213335 0.213335,-0.213335 0.117783,0 0.213335,0.0955512 0.213335,0.213335l0 1.15993c0,0.105472 -0.0766181,0.193114 -0.177213,0.210287z"/>
  <path class="fil2" d="M3.52 2.99214l0 -1.15993c0,-0.0589094 -0.0477598,-0.106669 -0.106669,-0.106669 -0.0589094,0 -0.106669,0.0477598 -0.106669,0.106669l0 1.15993c0,0.0589094 0.0477598,0.106669 0.106669,0.106669 0.0589094,0 0.106669,-0.0477598 0.106669,-0.106669zm0.0533268 0.474524c0,-0.0883661 -0.0716339,-0.16 -0.16,-0.16 -0.0883622,0 -0.159996,0.0716339 -0.159996,0.16 0,0.0883622 0.0716339,0.159996 0.159996,0.159996 0.0883661,0 0.16,-0.0716339 0.16,-0.159996z"/>
 </g>
</svg>
