<?xml version="1.0" encoding="UTF-8"?>
<!DOCTYPE svg PUBLIC "-//W3C//DTD SVG 1.1//EN" "http://www.w3.org/Graphics/SVG/1.1/DTD/svg11.dtd">
<!-- Creator: CorelDRAW -->
<svg xmlns="http://www.w3.org/2000/svg" xml:space="preserve" width="6.82666in" height="6.82666in" style="shape-rendering:geometricPrecision; text-rendering:geometricPrecision; image-rendering:optimizeQuality; fill-rule:evenodd; clip-rule:evenodd"
viewBox="0 0 6.82666 6.82666"
 xmlns:xlink="http://www.w3.org/1999/xlink">
 <defs>
  <style type="text/css">
   <![CDATA[
    .fil0 {fill:none}
    .fil1 {fill:#424242}
    .fil2 {fill:#64B5F6}
   ]]>
  </style>
 </defs>
 <g id="Layer_x0020_1">
  <metadata id="CorelCorpID_0Corel-Layer"/>
  <rect class="fil0" width="6.82666" height="6.82666"/>
  <rect class="fil0" x="0.853331" y="0.853331" width="5.12" height="5.12"/>
  <path class="fil1" d="M1.1 1.65333l4.62667 0c0.0477795,0 0.0911378,0.0194724 0.1225,0.0508346 0.0313622,0.0313622 0.0508346,0.0747205 0.0508346,0.1225l0 3.17334c0,0.0477795 -0.0194724,0.0911378 -0.0508346,0.1225 -0.0313622,0.0313622 -0.0747205,0.0508346 -0.1225,0.0508346l-4.62667 0c-0.0477795,0 -0.0911378,-0.0194724 -0.1225,-0.0508346 -0.0313622,-0.0313622 -0.0508346,-0.0747205 -0.0508346,-0.1225l0 -3.17334c0,-0.0477795 0.0194724,-0.0911378 0.0508346,-0.1225 0.0313622,-0.0313622 0.0747205,-0.0508346 0.1225,-0.0508346zm1.14 0.746673l0 0.746661 -0.426669 0 0 -1.17333 1.17333 0 0 0.426669 -0.746661 0zm0 2.02666l0.746661 0 0 0.426669 -1.17333 0 0 -1.17333 0.426669 0 0 0.746661zm2.34666 0l0 -0.746661 0.426669 0 0 1.17333 -1.17333 0 0 -0.426669 0.746661 0zm0 -2.02666l-0.746661 0 0 -0.426669 1.17333 0 0 1.17333 -0.426669 0 0 -0.746661z"/>
  <path class="fil2" d="M2.88 2.29333l0 -0.213339 -0.853331 0 -0.106669 0 0 0.106669 0 0.853331 0.213339 0 0 -0.746661 0.746661 0zm-0.746661 2.23999l0 -0.746661 -0.213339 0 0 0.853331 0 0.106669 0.106669 0 0.853331 0 0 -0.213339 -0.746661 0zm2.77333 0.106669l0 -0.853331 -0.213339 0 0 0.746661 -0.746661 0 0 0.213339 0.853331 0 0.106669 0 0 -0.106669zm0 -2.45333l0 -0.106669 -0.106669 0 -0.853331 0 0 0.213339 0.746661 0 0 0.746661 0.213339 0 0 -0.853331z"/>
 </g>
</svg>
