<?xml version="1.0" encoding="UTF-8"?>
<!DOCTYPE svg PUBLIC "-//W3C//DTD SVG 1.1//EN" "http://www.w3.org/Graphics/SVG/1.1/DTD/svg11.dtd">
<!-- Creator: CorelDRAW -->
<svg xmlns="http://www.w3.org/2000/svg" xml:space="preserve" width="6.82666in" height="6.82666in" style="shape-rendering:geometricPrecision; text-rendering:geometricPrecision; image-rendering:optimizeQuality; fill-rule:evenodd; clip-rule:evenodd"
viewBox="0 0 6.82666 6.82666"
 xmlns:xlink="http://www.w3.org/1999/xlink">
 <defs>
  <style type="text/css">
   <![CDATA[
    .fil1 {fill:none}
    .fil0 {fill:#424242}
    .fil2 {fill:#64B5F6}
   ]]>
  </style>
 </defs>
 <g id="Layer_x0020_1">
  <metadata id="CorelCorpID_0Corel-Layer"/>
  <path class="fil0" d="M1.07377 0.853331l4.67912 0c0.0602126,0 0.115193,0.0247598 0.155327,0.0646693l0.000224409 0.000220472 0.000216535 0.000228346c0.0399134,0.0401299 0.0646732,0.0951102 0.0646732,0.155323l0 4.67912c0,0.0602126 -0.0247598,0.115193 -0.0646693,0.155327l-0.000220472 0.000224409 -0.000228346 0.000216535c-0.0401299,0.0399134 -0.0951102,0.0646732 -0.155323,0.0646732l-4.67912 0c-0.0602126,0 -0.115193,-0.0247598 -0.155327,-0.0646693l-0.000224409 -0.000220472 -0.000216535 -0.000228346c-0.0399134,-0.0401299 -0.0646732,-0.0951102 -0.0646732,-0.155323l0 -4.67912c0,-0.0602126 0.0247598,-0.115193 0.0646693,-0.155327l0.000220472 -0.000224409 0.000228346 -0.000216535c0.0401299,-0.0399134 0.0951102,-0.0646732 0.155323,-0.0646732zm0.824579 2.56l0.682665 0 0.113783 0 0 0.11378 0 1.93422 0 0.11378 -0.113783 0 -0.682665 0 -0.11378 0 0 -0.11378 0 -1.93422 0 -0.11378 0.11378 0zm1.17365 -0.455114l0.682669 0 0.11378 0 0 0.11378 0 2.38933 0 0.11378 -0.11378 0 -0.682669 0 -0.11378 0 0 -0.11378 0 -2.38933 0 -0.11378 0.11378 0zm1.17365 -0.568886l0.682665 0 0.11378 0 0 0.113783 0 2.95821 0 0.11378 -0.11378 0 -0.682665 0 -0.113783 0 0 -0.11378 0 -2.95821 0 -0.113783 0.113783 0z"/>
  <rect class="fil1" width="6.82666" height="6.82666"/>
  <rect class="fil1" x="0.853331" y="0.853331" width="5.12" height="5.12"/>
  <path class="fil2" d="M2.58813 3.51999l-0.696898 0 0 1.94844 0.696898 0 0 -1.94844zm2.34729 -1.024l-0.696898 0 0 2.97244 0.696898 0 0 -2.97244zm-1.17365 0.568886l-0.696898 0 0 2.40356 0.696898 0 0 -2.40356z"/>
 </g>
</svg>
