<?xml version="1.0" encoding="UTF-8"?>
<!DOCTYPE svg PUBLIC "-//W3C//DTD SVG 1.1//EN" "http://www.w3.org/Graphics/SVG/1.1/DTD/svg11.dtd">
<!-- Creator: CorelDRAW -->
<svg xmlns="http://www.w3.org/2000/svg" xml:space="preserve" width="6.82666in" height="6.82666in" style="shape-rendering:geometricPrecision; text-rendering:geometricPrecision; image-rendering:optimizeQuality; fill-rule:evenodd; clip-rule:evenodd"
viewBox="0 0 6.82666 6.82666"
 xmlns:xlink="http://www.w3.org/1999/xlink">
 <defs>
  <style type="text/css">
   <![CDATA[
    .fil0 {fill:none}
    .fil1 {fill:#424242}
    .fil2 {fill:#64B5F6;fill-rule:nonzero}
   ]]>
  </style>
 </defs>
 <g id="Layer_x0020_1">
  <metadata id="CorelCorpID_0Corel-Layer"/>
  <rect class="fil0" width="6.82666" height="6.82666"/>
  <rect class="fil0" x="0.853331" y="0.853331" width="5.12" height="5.12"/>
  <path class="fil1" d="M5.34514 1.85583l0 3.94667 0 0.106669 -0.106669 0 -3.30666 0 -0.106669 0 0 -0.106669 0 -3.94667 0 -0.106669 0.106669 0 0.673524 0 0 0.597504 1.98133 0 0 -0.597504 0.651803 0 0.106669 0 0 0.106669zm-1.65332 3.01696l0 0.26513 -0.213339 0 0 -0.26513 0.213339 0zm-1.1811e-005 -2.08154l0 1.95144 -0.213339 0 0 -1.95144 0.213339 0z"/>
  <path class="fil2" d="M3.596 0.959988c0.0883543,0 0.168358,0.0358268 0.226268,0.0937362 0.0579094,0.0579094 0.0937362,0.137913 0.0937362,0.226268 0,0.0883504 -0.0358268,0.168358 -0.0937362,0.226268 -0.0579094,0.0579094 -0.137913,0.0937362 -0.226268,0.0937362 -0.0883504,0 -0.168358,-0.0358268 -0.226268,-0.0937362 -0.0579094,-0.0579094 -0.0937362,-0.137917 -0.0937362,-0.226268 0,-0.0883543 0.0358268,-0.168358 0.0937362,-0.226268 0.0579094,-0.0579094 0.137917,-0.0937362 0.226268,-0.0937362zm0.0754331 0.244571c-0.0192913,-0.0192913 -0.0459646,-0.0312323 -0.0754331,-0.0312323 -0.0294646,0 -0.0561417,0.0119409 -0.0754331,0.0312323 -0.0192913,0.0192913 -0.0312323,0.0459646 -0.0312323,0.0754331 0,0.0294646 0.0119409,0.0561417 0.0312323,0.0754331 0.0192913,0.0192913 0.0459685,0.0312323 0.0754331,0.0312323 0.0294685,0 0.0561417,-0.0119409 0.0754331,-0.0312323 0.0192913,-0.0192913 0.0312323,-0.0459685 0.0312323,-0.0754331 0,-0.0294685 -0.0119409,-0.0561417 -0.0312323,-0.0754331z"/>
  <polygon class="fil2" points="2.816,1.38666 4.376,1.38666 4.48,1.38666 4.48,1.49333 4.48,2.13333 4.48,2.24 4.376,2.24 2.816,2.24 2.712,2.24 2.712,2.13333 2.712,1.49333 2.712,1.38666 "/>
 </g>
</svg>
