<?xml version="1.0" encoding="UTF-8"?>
<!DOCTYPE svg PUBLIC "-//W3C//DTD SVG 1.1//EN" "http://www.w3.org/Graphics/SVG/1.1/DTD/svg11.dtd">
<!-- Creator: CorelDRAW -->
<svg xmlns="http://www.w3.org/2000/svg" xml:space="preserve" width="6.82666in" height="6.82666in" style="shape-rendering:geometricPrecision; text-rendering:geometricPrecision; image-rendering:optimizeQuality; fill-rule:evenodd; clip-rule:evenodd"
viewBox="0 0 6.82666 6.82666"
 xmlns:xlink="http://www.w3.org/1999/xlink">
 <defs>
  <style type="text/css">
   <![CDATA[
    .fil0 {fill:none}
    .fil1 {fill:#424242}
    .fil2 {fill:#64B5F6;fill-rule:nonzero}
   ]]>
  </style>
 </defs>
 <g id="Layer_x0020_1">
  <metadata id="CorelCorpID_0Corel-Layer"/>
  <rect class="fil0" width="6.82666" height="6.82666"/>
  <rect class="fil0" x="0.853331" y="0.853331" width="5.12" height="5.12"/>
  <path class="fil1" d="M5.23137 1.78252l0 4.07683 0 0.110189 -0.110189 0 -3.41572 0 -0.110185 0 0 -0.110189 0 -4.07683 0 -0.110189 0.110185 0 0.695736 0 0 0.617213 2.04668 0 0 -0.617213 0.673299 0 0.110189 0 0 0.110189zm-1.70785 0.949894l0 2.15806 0.362823 -0.362827 0.155811 0.155807 -0.550921 0.550925 -0.0779055 0.0779055 -0.0779016 -0.0779055 -0.550921 -0.550925 0.155807 -0.155807 0.362835 0.362835 0 -2.15807 0.220374 0z"/>
  <g id="_532227776">
   <path id="_532227896" class="fil2" d="M3.42454 0.938744c0.0883543,0 0.168358,0.0358268 0.226268,0.0937362 0.0579094,0.0579094 0.0937362,0.137913 0.0937362,0.226268 0,0.0883504 -0.0358268,0.168358 -0.0937362,0.226268 -0.0579094,0.0579094 -0.137913,0.0937362 -0.226268,0.0937362 -0.0883504,0 -0.168358,-0.0358268 -0.226268,-0.0937362 -0.0579094,-0.0579094 -0.0937362,-0.137917 -0.0937362,-0.226268 0,-0.0883543 0.0358268,-0.168358 0.0937362,-0.226268 0.0579094,-0.0579094 0.137917,-0.0937362 0.226268,-0.0937362zm0.0754331 0.244571c-0.0192913,-0.0192913 -0.0459646,-0.0312323 -0.0754331,-0.0312323 -0.0294646,0 -0.0561417,0.0119409 -0.0754331,0.0312323 -0.0192913,0.0192913 -0.0312323,0.0459646 -0.0312323,0.0754331 0,0.0294646 0.0119409,0.0561417 0.0312323,0.0754331 0.0192913,0.0192913 0.0459685,0.0312323 0.0754331,0.0312323 0.0294685,0 0.0561417,-0.0119409 0.0754331,-0.0312323 0.0192913,-0.0192913 0.0312323,-0.0459685 0.0312323,-0.0754331 0,-0.0294685 -0.0119409,-0.0561417 -0.0312323,-0.0754331z"/>
   <polygon id="_532227920" class="fil2" points="2.64455,1.36541 4.20454,1.36541 4.30855,1.36541 4.30855,1.47208 4.30855,2.11208 4.30855,2.21875 4.20454,2.21875 2.64455,2.21875 2.54054,2.21875 2.54054,2.11208 2.54054,1.47208 2.54054,1.36541 "/>
  </g>
 </g>
</svg>
