<?xml version="1.0" encoding="UTF-8"?>
<!DOCTYPE svg PUBLIC "-//W3C//DTD SVG 1.1//EN" "http://www.w3.org/Graphics/SVG/1.1/DTD/svg11.dtd">
<!-- Creator: CorelDRAW -->
<svg xmlns="http://www.w3.org/2000/svg" xml:space="preserve" width="6.82666in" height="6.82666in" style="shape-rendering:geometricPrecision; text-rendering:geometricPrecision; image-rendering:optimizeQuality; fill-rule:evenodd; clip-rule:evenodd"
viewBox="0 0 6.82666 6.82666"
 xmlns:xlink="http://www.w3.org/1999/xlink">
 <defs>
  <style type="text/css">
   <![CDATA[
    .fil0 {fill:none}
    .fil1 {fill:#424242;fill-rule:nonzero}
    .fil2 {fill:#64B5F6;fill-rule:nonzero}
   ]]>
  </style>
 </defs>
 <g id="Layer_x0020_1">
  <metadata id="CorelCorpID_0Corel-Layer"/>
  <rect class="fil0" width="6.82666" height="6.82666"/>
  <rect class="fil0" x="0.853331" y="0.853331" width="5.12" height="5.12"/>
  <path class="fil1" d="M1.97019 2.77333l2.88778 0 0.104673 0 -0.00193701 0.108335c-0.0266102,1.48773 -0.439555,2.44092 -0.951791,2.85696 -0.208689,0.169496 -0.434925,0.252539 -0.660933,0.249228 -0.226496,-0.0033189 -0.44948,-0.0931299 -0.651146,-0.269323 -0.488217,-0.426555 -0.856823,-1.37533 -0.829378,-2.84019l0.0019685 -0.105004 0.100768 0z"/>
  <path class="fil2" d="M2.14834 2.66666c0.0295394,-0.728445 0.312535,-1.20952 0.678256,-1.43994 0.163213,-0.102831 0.343028,-0.156016 0.525106,-0.159476 0.181008,-0.00344094 0.363512,0.0427205 0.533252,0.138539 0.391587,0.221059 0.714445,0.708563 0.782374,1.46088l-2.51899 0z"/>
  <g id="_532230344">
   <path id="_532230176" class="fil1" d="M4.79832 2.77333c-0.0589094,0 -0.106669,0.0477598 -0.106669,0.106669 0,0.0589094 0.0477598,0.106669 0.106669,0.106669l0.476283 0c0.0441575,0 0.0820472,-0.0268307 0.0982559,-0.0650827l0.310181 -0.579106c0.0276142,-0.0517756 0.00802362,-0.116138 -0.043752,-0.143752 -0.0517756,-0.0276142 -0.116138,-0.00802362 -0.143752,0.043752l-0.284331 0.53085 -0.412886 0z"/>
   <path id="_532230104" class="fil1" d="M2.02687 2.98667c0.0589094,0 0.106669,-0.0477598 0.106669,-0.106669 0,-0.0589094 -0.0477598,-0.106669 -0.106669,-0.106669l-0.412886 0 -0.284331 -0.53085c-0.0276142,-0.0517756 -0.0919764,-0.0713661 -0.143752,-0.043752 -0.0517756,0.0276142 -0.0713661,0.0919764 -0.043752,0.143752l0.310181 0.579106c0.0162087,0.038252 0.0540984,0.0650827 0.0982559,0.0650827l0.476283 0z"/>
  </g>
  <path class="fil1" d="M2.02667 4.37333c0.0589094,0 0.106669,-0.0477598 0.106669,-0.106669 0,-0.0589094 -0.0477598,-0.106669 -0.106669,-0.106669l-0.343319 0 -0.243012 -0.525433c-0.024622,-0.0533858 -0.0878622,-0.0767047 -0.141248,-0.0520827 -0.0533858,0.024622 -0.0767047,0.0878622 -0.0520827,0.141248l0.268776 0.58113c0.0153661,0.0400433 0.0541693,0.0684764 0.0996181,0.0684764l0.411268 0z"/>
  <path class="fil1" d="M2.34667 5.33333c0.0589094,0 0.106669,-0.0477598 0.106669,-0.106669 0,-0.0589094 -0.0477598,-0.106669 -0.106669,-0.106669l-0.411268 0c-0.0454488,0 -0.084252,0.0284331 -0.0996181,0.0684764l-0.268776 0.58113c-0.024622,0.0533858 -0.00130315,0.116626 0.0520827,0.141248 0.0533858,0.024622 0.116626,0.00130315 0.141248,-0.0520827l0.243012 -0.525433 0.343319 0z"/>
  <path class="fil1" d="M4.37333 5.11999c-0.0589094,0 -0.106669,0.0477598 -0.106669,0.106669 0,0.0589094 0.0477598,0.106669 0.106669,0.106669l0.343319 0 0.243012 0.525433c0.024622,0.0533858 0.0878622,0.0767047 0.141248,0.0520827 0.0533858,-0.024622 0.0767047,-0.0878622 0.0520827,-0.141248l-0.268776 -0.58113c-0.0153661,-0.0400433 -0.0541693,-0.0684764 -0.0996181,-0.0684764l-0.411268 0z"/>
  <path class="fil1" d="M4.757 4.15999c-0.0589094,0 -0.106669,0.0477598 -0.106669,0.106669 0,0.0589094 0.0477598,0.106669 0.106669,0.106669l0.411268 0c0.0454488,0 0.084252,-0.0284331 0.0996181,-0.0684764l0.268776 -0.58113c0.024622,-0.0533858 0.00130315,-0.116626 -0.0520827,-0.141248 -0.0533858,-0.024622 -0.116626,-0.00130315 -0.141248,0.0520827l-0.243012 0.525433 -0.343319 0z"/>
  <path class="fil2" d="M4.15255 1.67817c-0.0156457,0.0566063 0.0175591,0.115189 0.0741654,0.130835 0.0566063,0.0156457 0.115189,-0.0175591 0.130835,-0.0741654 0.025815,-0.0935118 0.0406811,-0.176858 0.0544409,-0.254031 0.0437874,-0.245583 0.0738465,-0.414146 0.494677,-0.414146 0.0589094,0 0.106669,-0.0477598 0.106669,-0.106669 0,-0.0589094 -0.0477598,-0.106669 -0.106669,-0.106669 -0.599323,0 -0.642209,0.240469 -0.704677,0.590815 -0.0132992,0.0746102 -0.0276732,0.155185 -0.0494409,0.234031z"/>
  <path class="fil2" d="M2.33377 1.73484c0.0156457,0.0566063 0.0742283,0.089811 0.130835,0.0741654 0.0566063,-0.0156457 0.089811,-0.0742283 0.0741654,-0.130835 -0.0217677,-0.0788465 -0.0361417,-0.159421 -0.0494409,-0.234031 -0.0624685,-0.350346 -0.105354,-0.590815 -0.704677,-0.590815 -0.0589094,0 -0.106669,0.0477598 -0.106669,0.106669 0,0.0589094 0.0477598,0.106669 0.106669,0.106669 0.420831,0 0.45089,0.168563 0.494677,0.414146 0.0137598,0.0771732 0.028626,0.16052 0.0544409,0.254031z"/>
 </g>
</svg>
