<?xml version="1.0" encoding="UTF-8"?>
<!DOCTYPE svg PUBLIC "-//W3C//DTD SVG 1.1//EN" "http://www.w3.org/Graphics/SVG/1.1/DTD/svg11.dtd">
<!-- Creator: CorelDRAW -->
<svg xmlns="http://www.w3.org/2000/svg" xml:space="preserve" width="6.82666in" height="6.82666in" style="shape-rendering:geometricPrecision; text-rendering:geometricPrecision; image-rendering:optimizeQuality; fill-rule:evenodd; clip-rule:evenodd"
viewBox="0 0 6.82666 6.82666"
 xmlns:xlink="http://www.w3.org/1999/xlink">
 <defs>
  <style type="text/css">
   <![CDATA[
    .fil0 {fill:none}
    .fil2 {fill:#424242}
    .fil1 {fill:#64B5F6}
    .fil3 {fill:#64B5F6;fill-rule:nonzero}
   ]]>
  </style>
 </defs>
 <g id="Layer_x0020_1">
  <metadata id="CorelCorpID_0Corel-Layer"/>
  <rect class="fil0" width="6.82666" height="6.82666"/>
  <rect class="fil0" x="0.853331" y="0.853331" width="5.12" height="5.12"/>
  <path class="fil1" d="M3.30102 4.31691l0 0zm-0.328602 0.891205l0 0zm-0.301118 0.192744l0 0zm-0.765335 0.196276l0 0zm-0.884913 -0.964256l0 0zm-0.146083 -0.0680709l0 0zm-0.0459173 -0.353965l0 0zm0.252315 -0.542331l0 0zm0.36874 -0.338429c0.0283346,0.00124803 0.0553937,0.00787402 0.079685,0.0191969 0.0239921,0.011185 0.0463701,0.0276299 0.0656654,0.0486457l0.000216535 -0.00019685 0.0714409 0.0778346c0.0198465,-0.00879921 0.0399646,-0.0169173 0.0602992,-0.0243425 0.0202638,-0.0073937 0.0407244,-0.0141102 0.0613425,-0.0201299l0.00450787 -0.104839c0.00248031,-0.0583031 0.0281575,-0.109661 0.0675433,-0.145803 0.0395079,-0.0362362 0.0928268,-0.0574803 0.150366,-0.0553228l0.000429134 0 0.203307 0.0086811 0.000433071 0c0.0580079,0.00254724 0.109441,0.0282126 0.145673,0.0676575 0.036311,0.0395433 0.057563,0.0928858 0.055126,0.150677l-0.0045315 0.105449c0.0202953,0.00782677 0.0402638,0.016311 0.059878,0.0254409 0.0194921,0.00907087 0.0387402,0.0188307 0.0577087,0.0292638l0.0773701 -0.0710433 0.000433071 0c0.0207087,-0.0189724 0.0444685,-0.0332913 0.0698071,-0.0425079 0.025315,-0.00922835 0.0525039,-0.0135433 0.0800236,-0.0125276l0.000425197 0c0.0281378,0.0011378 0.0551929,0.00774409 0.0796614,0.0190945 0.0249252,0.011563 0.0475748,0.0279646 0.0664409,0.0484488l0.137614 0.149992 0 0.000433071c0.0391417,0.042748 0.0573465,0.0970748 0.0550945,0.150323 -0.00227953,0.0537008 -0.0250512,0.106551 -0.0678071,0.145819l0.000200787 0.000216535 -0.0778031 0.0713976c0.0088189,0.0199213 0.0169528,0.0400906 0.0243819,0.0604685 0.00737008,0.0202283 0.0140669,0.0406496 0.0200669,0.0612205l0.104799 0.00450787c0.0281575,0.00114567 0.0552087,0.00773622 0.0796811,0.0190984 0.0249291,0.011563 0.0475748,0.0279528 0.0664449,0.0484449l0 0.000433071c0.0189921,0.0207795 0.0333976,0.044626 0.042626,0.0700236 0.0092874,0.0255591 0.0136142,0.0529882 0.0123622,0.0807717l-0.00863386 0.202882 0 0.000429134c-0.00257874,0.0580551 -0.0282441,0.109343 -0.067626,0.145476 -0.0395079,0.036248 -0.0927559,0.0574685 -0.150291,0.0552244l-0.000429134 0 -0.105433 -0.00449213c-0.00782283,0.0202795 -0.0163031,0.0402362 -0.0254252,0.0598307 -0.00908268,0.0195118 -0.0188583,0.0387756 -0.0293031,0.057752l0.0710551 0.0774252 0.000862205 0.00129134 6.69291e-005 7.87402e-005 -4.33071e-005 3.93701e-005c0.0385315,0.0425315 0.0564409,0.0964134 0.0542047,0.14926 -0.00229528,0.0539685 -0.0249764,0.10689 -0.0675236,0.145949l-7.48031e-005 7.08661e-005 -0.149992 0.137724 -0.000433071 0c-0.0207244,0.0189764 -0.0445433,0.0333858 -0.0699803,0.0426535 -0.0255236,0.0092874 -0.0529134,0.0136063 -0.0807205,0.0123543 -0.0280433,-0.00118898 -0.0549016,-0.00776772 -0.0792402,-0.0190512 -0.0249606,-0.0115866 -0.0475787,-0.0279764 -0.0664449,-0.0484685l-0.0713819 -0.0778504c-0.019815,0.00877559 -0.0398858,0.0168701 -0.0601693,0.0242677 -0.0203898,0.00743701 -0.0408937,0.0141772 -0.0614764,0.0202087l-0.00446457 0.104815 0 0.000433071c-0.00123228,0.0283307 -0.00785039,0.0553937 -0.019185,0.0797126 -0.0111969,0.0240354 -0.0276457,0.0464055 -0.0486614,0.0656614l0.000200787 0.000216535c-0.0193937,0.0178504 -0.0417362,0.0317008 -0.065752,0.0410669 -0.0245039,0.00955906 -0.0503898,0.0145827 -0.0763346,0.0145827 -0.00247244,0 -0.0029252,-4.72441e-005 -0.00307087,-0.000110236l-0.00122047 0 -0.00474803 -0.000433071 -0.203386 -0.00877559c-0.0580945,-0.00257874 -0.109469,-0.0281929 -0.14561,-0.0675354 -0.036315,-0.0395551 -0.0575433,-0.0928976 -0.0550906,-0.150689l0 -0.000433071 0.00451969 -0.105028c-0.0202362,-0.00780709 -0.0401496,-0.0162756 -0.0597087,-0.025378 -0.0193858,-0.00901969 -0.0386693,-0.0188307 -0.057811,-0.0294173l-0.0774134 0.0710551c-0.0204213,0.0187913 -0.0444094,0.0331654 -0.0703189,0.0426417 -0.0254213,0.0092874 -0.052752,0.0136142 -0.080374,0.0124961l-0.000433071 0c-0.0283898,-0.00125591 -0.0554646,-0.00787402 -0.0797874,-0.0191969 -0.0240197,-0.0111811 -0.0463898,-0.027622 -0.0656811,-0.0486535l-0.000216535 0.000200787 -0.137598 -0.149996c-0.0187756,-0.020378 -0.0332165,-0.0443386 -0.0427323,-0.070374 -0.0093189,-0.0254921 -0.0136378,-0.0528937 -0.0124016,-0.080748 0.00125591,-0.0283543 0.00787795,-0.0554173 0.0192047,-0.0797165 0.0111929,-0.0240118 0.027626,-0.0463819 0.0486457,-0.0656535l-0.000200787 -0.000216535 0.0777559 -0.0714055c-0.00875591,-0.0197795 -0.0168425,-0.039815 -0.0242362,-0.0600709 -0.00745276,-0.0204213 -0.0142047,-0.0409646 -0.020248,-0.0615787l-0.105177 -0.00455906c-0.0284016,-0.00120472 -0.0554764,-0.0077874 -0.0797913,-0.0191024 -0.024685,-0.0114882 -0.0472795,-0.0280315 -0.0662913,-0.0489685 -0.0185827,-0.0203071 -0.0328268,-0.044063 -0.042252,-0.0698504 -0.00927165,-0.0253819 -0.0135906,-0.0526535 -0.0124685,-0.0804016l0 -0.000429134 0.00880315 -0.203283c0.00255512,-0.0581339 0.0282087,-0.109394 0.0675236,-0.145504 0.0395394,-0.036311 0.0930118,-0.0575512 0.150799,-0.0552913l0.000433071 0 0.104929 0.00451181c0.00780709,-0.0202244 0.0162677,-0.0401339 0.0253661,-0.0596811l0.000165354 7.87402e-005c0.00909449,-0.0195276 0.0188858,-0.038811 0.0293425,-0.0578189l-0.0711299 -0.0775079 -6.69291e-005 -6.69291e-005c-0.0392047,-0.0426654 -0.057378,-0.0972677 -0.0550472,-0.151051 0.00241339,-0.0537953 0.025122,-0.106571 0.0675591,-0.145638l6.29921e-005 -6.69291e-005 0.149996 -0.137594 0.000433071 0c0.0206772,-0.0189291 0.0445039,-0.0333386 0.0699488,-0.0426457 0.0253386,-0.00926378 0.0526102,-0.0136102 0.0803071,-0.0124843l0.000433071 0zm0.583945 1.65532c-0.171008,-0.00735827 -0.322996,-0.0834528 -0.430272,-0.200346 -0.107409,-0.117028 -0.170283,-0.27489 -0.162953,-0.445606 0.00716142,-0.166732 0.078689,-0.315295 0.190012,-0.422059 0.111783,-0.107205 0.263122,-0.17265 0.429339,-0.17265 0.00805118,0 -0.00298819,0.000216535 0.0137874,0.000622047l0.00790945 0.000204724 0 -0.000318898 1.5748e-005 0 0.00457087 0.000452756 0.000799213 3.54331e-005 0 2.75591e-005c0.171142,0.00747638 0.323091,0.0835118 0.43026,0.200283 0.10637,0.115894 0.169075,0.271866 0.163146,0.440732l0.000307087 0 0 1.5748e-005 -0.000492126 0.00488976c-0.00737008,0.171622 -0.0830197,0.323874 -0.199921,0.431165 -0.116677,0.107087 -0.274272,0.16972 -0.44602,0.162551l-0.000488189 0z"/>
  <path class="fil2" d="M2.48685 1.07337l0.469748 0.590886 -0.168008 0.427161 -0.455039 0.0680157 -0.469413 -0.590461 -0.0262638 0.0660748c-0.0600197,0.15098 -0.0797205,0.316248 -0.0560709,0.477035 0.0237205,0.161248 0.0897205,0.311724 0.190874,0.439409l0.0131102 0.0165394c0.104646,0.125752 0.239799,0.22085 0.393929,0.276756 0.140732,0.0510394 0.292929,0.0673386 0.441291,0.0474173l0.0377717 -0.0050748 2.26388 2.71225c0.0386969,0.0463583 0.0841142,0.0877047 0.137087,0.117165 0.0526654,0.0292953 0.110854,0.0481181 0.17074,0.0549567 0.0596299,0.00681496 0.120201,0.00194094 0.177902,-0.0146654 0.0524016,-0.0150787 0.101374,-0.0394055 0.145126,-0.0717047l0.0137323 -0.010878c0.095374,-0.0755433 0.156087,-0.184772 0.169886,-0.305634 0.0137559,-0.120465 -0.0211575,-0.241996 -0.0963465,-0.337067l-0.00729528 -0.00922441 -2.27083 -2.71994 0.0119961 -0.0364213c0.0447047,-0.135701 0.0575197,-0.28039 0.0372323,-0.421839 -0.023315,-0.162575 -0.0893228,-0.314563 -0.191472,-0.443114 -0.101339,-0.127528 -0.233252,-0.22548 -0.384945,-0.284917 -0.151598,-0.0593976 -0.317035,-0.0779528 -0.477992,-0.0534685l-0.0706299 0.0107441z"/>
  <path class="fil3" d="M2.11839 5.38581l0.000452756 1.9685e-005 0 1.9685e-005 0.000799213 3.14961e-005 0.000862205 0c0.0024252,9.44882e-005 -4.72441e-005,-3.93701e-006 -0.00211417,-0.000122047l0 5.11811e-005z"/>
  <polygon class="fil3" points="2.11783,5.38578 2.11839,5.38581 2.11839,5.38576 2.11799,5.38573 "/>
 </g>
</svg>
