<?xml version="1.0" encoding="UTF-8"?>
<!DOCTYPE svg PUBLIC "-//W3C//DTD SVG 1.1//EN" "http://www.w3.org/Graphics/SVG/1.1/DTD/svg11.dtd">
<!-- Creator: CorelDRAW -->
<svg xmlns="http://www.w3.org/2000/svg" xml:space="preserve" width="6.82666in" height="6.82666in" style="shape-rendering:geometricPrecision; text-rendering:geometricPrecision; image-rendering:optimizeQuality; fill-rule:evenodd; clip-rule:evenodd"
viewBox="0 0 6.82666 6.82666"
 xmlns:xlink="http://www.w3.org/1999/xlink">
 <defs>
  <style type="text/css">
   <![CDATA[
    .fil0 {fill:none}
    .fil1 {fill:#424242}
    .fil4 {fill:#64B5F6}
    .fil2 {fill:#424242;fill-rule:nonzero}
    .fil3 {fill:#64B5F6;fill-rule:nonzero}
   ]]>
  </style>
 </defs>
 <g id="Layer_x0020_1">
  <metadata id="CorelCorpID_0Corel-Layer"/>
  <rect class="fil0" width="6.82666" height="6.82666"/>
  <rect class="fil0" x="0.853331" y="0.853331" width="5.12" height="5.12"/>
  <path class="fil1" d="M1.20333 2.50666l4.42 0c0.0752756,0 0.143638,0.0307283 0.193126,0.0802087 0.0494882,0.0494882 0.0802087,0.117854 0.0802087,0.193126l0 2.54667c0,0.0752717 -0.0307244,0.143634 -0.0802126,0.193122 -0.0494882,0.0494882 -0.11785,0.0802126 -0.193122,0.0802126l-4.42 0c-0.0752717,0 -0.143638,-0.0307205 -0.193126,-0.0802087 -0.0494803,-0.0494882 -0.0802087,-0.11785 -0.0802087,-0.193126l0 -2.54667c0,-0.0752756 0.0307205,-0.143638 0.0802087,-0.193126 0.0494882,-0.0494882 0.11785,-0.0802087 0.193126,-0.0802087zm2.21 0.586665c0.265087,0 0.505087,0.107457 0.678819,0.281185 0.173728,0.173732 0.281185,0.413736 0.281185,0.678819 0,0.265087 -0.107457,0.505087 -0.281185,0.678819 -0.173732,0.173728 -0.413732,0.281185 -0.678819,0.281185 -0.265087,0 -0.505087,-0.107457 -0.678819,-0.281185 -0.173728,-0.173732 -0.281185,-0.413732 -0.281185,-0.678819 0,-0.265083 0.107457,-0.505087 0.281185,-0.678819 0.173732,-0.173728 0.413732,-0.281185 0.678819,-0.281185z"/>
  <path class="fil2" d="M3.41333 3.26784c0.216894,0 0.413268,0.0879252 0.555413,0.230075 0.14215,0.14215 0.230075,0.338524 0.230075,0.555413 0,0.216894 -0.0879252,0.413268 -0.230075,0.555413 -0.142146,0.14215 -0.33852,0.230075 -0.555413,0.230075 -0.216894,0 -0.413268,-0.0879252 -0.555413,-0.230075 -0.14215,-0.142146 -0.230075,-0.33852 -0.230075,-0.555413 0,-0.21689 0.0879252,-0.413264 0.230075,-0.555413 0.142146,-0.14215 0.33852,-0.230075 0.555413,-0.230075zm0.404579 0.380909c-0.103528,-0.103531 -0.246571,-0.167571 -0.404579,-0.167571 -0.158008,0 -0.301051,0.0640394 -0.404579,0.167571 -0.103531,0.103531 -0.167571,0.246575 -0.167571,0.404579 0,0.158008 0.0640394,0.301051 0.167571,0.404579 0.103528,0.103531 0.246571,0.167571 0.404579,0.167571 0.158008,0 0.301051,-0.0640394 0.404579,-0.167571 0.103531,-0.103528 0.167571,-0.246571 0.167571,-0.404579 0,-0.158004 -0.0640394,-0.301047 -0.167571,-0.404579z"/>
  <g id="_532232096">
   <polygon id="_532232720" class="fil3" points="1.49333,2.18568 2.02667,2.18568 2.02667,2.39902 1.49333,2.39902 "/>
   <polygon id="_532233056" class="fil3" points="4.64,2.18569 5.38667,2.18569 5.38667,2.39902 4.64,2.39902 "/>
   <path id="_532233344" class="fil4" d="M4.40446 2.39902l-0.247382 -1.06375c-0.0131929,-0.0567244 -0.0390197,-0.11065 -0.0785512,-0.150189 -0.0407165,-0.0407165 -0.0933346,-0.0660591 -0.158531,-0.0660591l-1.01334 0c-0.0651969,0 -0.117815,0.0253425 -0.158531,0.0660591 -0.0395276,0.0395276 -0.0653583,0.0934606 -0.0785512,0.150189l-0.247382 1.06375 1.98227 0zm-1.28575 -0.853335l0.589228 0 0.106669 0 0 0.106669 0 0.482563 0 0.106669 -0.106669 0 -0.589228 0 -0.106669 0 0 -0.106669 0 -0.482563 0 -0.106669 0.106669 0z"/>
   <polygon id="_532233272" class="fil4" points="3.60128,2.02825 3.60128,1.75903 3.22539,1.75903 3.22539,2.02825 "/>
  </g>
 </g>
</svg>
