<?xml version="1.0" encoding="UTF-8"?>
<!DOCTYPE svg PUBLIC "-//W3C//DTD SVG 1.1//EN" "http://www.w3.org/Graphics/SVG/1.1/DTD/svg11.dtd">
<!-- Creator: CorelDRAW -->
<svg xmlns="http://www.w3.org/2000/svg" xml:space="preserve" width="6.82666in" height="6.82666in" style="shape-rendering:geometricPrecision; text-rendering:geometricPrecision; image-rendering:optimizeQuality; fill-rule:evenodd; clip-rule:evenodd"
viewBox="0 0 6.82666 6.82666"
 xmlns:xlink="http://www.w3.org/1999/xlink">
 <defs>
  <style type="text/css">
   <![CDATA[
    .fil0 {fill:none}
    .fil1 {fill:#424242}
    .fil2 {fill:#64B5F6;fill-rule:nonzero}
   ]]>
  </style>
 </defs>
 <g id="Layer_x0020_1">
  <metadata id="CorelCorpID_0Corel-Layer"/>
  <rect class="fil0" width="6.82666" height="6.82666"/>
  <rect class="fil0" x="0.853331" y="0.853331" width="5.12" height="5.12"/>
  <path class="fil1" d="M0.96 2.34666l0.514106 0 0 0.910839 -0.370449 -0.22785 -0.00985827 1.45007 0.380307 -0.304575 0 1.15819 -0.514106 0 -0.106669 0 0 -0.106669 0 -2.77333 0 -0.106669 0.106669 0zm1.17333 0l3.73333 0 0.106669 0 0 0.106669 0 2.77333 0 0.106669 -0.106669 0 -3.73333 0 0 -1.18735 0.416724 0.33374 -0.00777165 -1.14243 -0.00208661 -0.307638 -0.406866 0.250244 0 -0.933232zm0.64 0.64l2.56 0 0 0.213339 -2.56 0 0 -0.213339zm0 0.640008l2.56 0 0 0.213339 -2.56 0 0 -0.213339zm0 0.640008l2.56 0 0 0.213339 -2.56 0 0 -0.213339z"/>
  <polygon class="fil2" points="2.308,4.20046 1.82193,3.81117 1.33585,4.20046 1.16141,4.34016 1.16293,4.11713 1.16823,3.33774 1.16952,3.14842 1.33031,3.24732 1.82193,3.54969 2.31354,3.24732 2.47434,3.14842 2.47562,3.33774 2.48092,4.11713 2.48244,4.34016 "/>
 </g>
</svg>
