<?xml version="1.0" encoding="UTF-8"?>
<!DOCTYPE svg PUBLIC "-//W3C//DTD SVG 1.1//EN" "http://www.w3.org/Graphics/SVG/1.1/DTD/svg11.dtd">
<!-- Creator: CorelDRAW -->
<svg xmlns="http://www.w3.org/2000/svg" xml:space="preserve" width="6.82666in" height="6.82666in" style="shape-rendering:geometricPrecision; text-rendering:geometricPrecision; image-rendering:optimizeQuality; fill-rule:evenodd; clip-rule:evenodd"
viewBox="0 0 6.82666 6.82666"
 xmlns:xlink="http://www.w3.org/1999/xlink">
 <defs>
  <style type="text/css">
   <![CDATA[
    .fil1 {fill:none}
    .fil0 {fill:#424242}
    .fil2 {fill:#64B5F6}
   ]]>
  </style>
 </defs>
 <g id="Layer_x0020_1">
  <metadata id="CorelCorpID_0Corel-Layer"/>
  <path class="fil0" d="M3.41333 0.959992c0.677457,0 1.29079,0.274606 1.73476,0.718575 0.443969,0.443972 0.718575,1.05731 0.718575,1.73476 0,0.677457 -0.274606,1.29079 -0.718575,1.73476 -0.443972,0.443969 -1.05731,0.718575 -1.73476,0.718575 -0.677457,0 -1.29079,-0.274606 -1.73476,-0.718575 -0.443969,-0.443972 -0.718575,-1.05731 -0.718575,-1.73476 0,-0.677457 0.274606,-1.29079 0.718575,-1.73476 0.443972,-0.443969 1.05731,-0.718575 1.73476,-0.718575zm-0.64 3.12404l2.05791 -2.05791 0.395961 0.395961 -2.45387 2.45387 -0.19798 -0.197969 -0.975898 -0.975898 0.395961 -0.395961 0.777913 0.777913z"/>
  <rect class="fil1" width="6.82666" height="6.82666"/>
  <rect class="fil1" x="0.853331" y="0.853331" width="5.12" height="5.12"/>
  <polygon class="fil2" points="2.77333,4.23488 4.83124,2.17697 5.07636,2.42208 2.77333,4.7251 2.65078,4.60256 1.7503,3.70208 1.99542,3.45697 "/>
 </g>
</svg>
