<?xml version="1.0" encoding="UTF-8"?>
<!DOCTYPE svg PUBLIC "-//W3C//DTD SVG 1.1//EN" "http://www.w3.org/Graphics/SVG/1.1/DTD/svg11.dtd">
<!-- Creator: CorelDRAW -->
<svg xmlns="http://www.w3.org/2000/svg" xml:space="preserve" width="6.82666in" height="6.82666in" style="shape-rendering:geometricPrecision; text-rendering:geometricPrecision; image-rendering:optimizeQuality; fill-rule:evenodd; clip-rule:evenodd"
viewBox="0 0 6.82666 6.82666"
 xmlns:xlink="http://www.w3.org/1999/xlink">
 <defs>
  <style type="text/css">
   <![CDATA[
    .fil0 {fill:none}
    .fil2 {fill:#424242;fill-rule:nonzero}
    .fil1 {fill:#64B5F6;fill-rule:nonzero}
   ]]>
  </style>
 </defs>
 <g id="Layer_x0020_1">
  <metadata id="CorelCorpID_0Corel-Layer"/>
  <rect class="fil0" width="6.82666" height="6.82666"/>
  <rect class="fil0" x="0.853331" y="0.853331" width="5.12" height="5.12"/>
  <polygon class="fil1" points="0.964638,1.37805 1.83529,1.37805 1.94659,1.37805 1.94659,1.48935 1.94659,2.42219 1.94659,2.5335 1.83529,2.5335 0.964638,2.5335 0.853331,2.5335 0.853331,2.42219 0.853331,1.48935 0.853331,1.37805 "/>
  <polygon class="fil2" points="2.27061,1.37805 5.86202,1.37805 5.97333,1.37805 5.97333,1.48935 5.97333,2.42219 5.97333,2.5335 5.86202,2.5335 2.27061,2.5335 2.1593,2.5335 2.1593,2.42219 2.1593,1.48935 2.1593,1.37805 "/>
  <polygon class="fil1" points="4.99137,2.7773 5.86202,2.7773 5.97333,2.7773 5.97333,2.88861 5.97333,3.82144 5.97333,3.93275 5.86202,3.93275 4.99137,3.93275 4.88007,3.93275 4.88007,3.82144 4.88007,2.88861 4.88007,2.7773 "/>
  <polygon class="fil2" points="0.964638,2.7773 4.55606,2.7773 4.66736,2.7773 4.66736,2.88861 4.66736,3.82144 4.66736,3.93275 4.55606,3.93275 0.964638,3.93275 0.853331,3.93275 0.853331,3.82144 0.853331,2.88861 0.853331,2.7773 "/>
  <polygon class="fil1" points="0.964638,4.29316 1.83529,4.29316 1.94659,4.29316 1.94659,4.40447 1.94659,5.33731 1.94659,5.44861 1.83529,5.44861 0.964638,5.44861 0.853331,5.44861 0.853331,5.33731 0.853331,4.40447 0.853331,4.29316 "/>
  <polygon class="fil2" points="2.27061,4.29316 5.86202,4.29316 5.97333,4.29316 5.97333,4.40447 5.97333,5.33731 5.97333,5.44861 5.86202,5.44861 2.27061,5.44861 2.1593,5.44861 2.1593,5.33731 2.1593,4.40447 2.1593,4.29316 "/>
 </g>
</svg>
