<?xml version="1.0" encoding="UTF-8"?>
<!DOCTYPE svg PUBLIC "-//W3C//DTD SVG 1.1//EN" "http://www.w3.org/Graphics/SVG/1.1/DTD/svg11.dtd">
<!-- Creator: CorelDRAW -->
<svg xmlns="http://www.w3.org/2000/svg" xml:space="preserve" width="6.82666in" height="6.82666in" style="shape-rendering:geometricPrecision; text-rendering:geometricPrecision; image-rendering:optimizeQuality; fill-rule:evenodd; clip-rule:evenodd"
viewBox="0 0 6.82666 6.82666"
 xmlns:xlink="http://www.w3.org/1999/xlink">
 <defs>
  <style type="text/css">
   <![CDATA[
    .fil0 {fill:none}
    .fil2 {fill:#424242}
    .fil1 {fill:#64B5F6}
   ]]>
  </style>
 </defs>
 <g id="Layer_x0020_1">
  <metadata id="CorelCorpID_0Corel-Layer"/>
  <rect class="fil0" width="6.82666" height="6.82666"/>
  <rect class="fil0" x="0.853331" y="0.853331" width="5.12" height="5.12"/>
  <g id="_532241864">
   <path id="_532241456" class="fil1" d="M4.29157 2.17956l0.648094 -0.648094 -0.143504 -0.143504 -0.565768 0.565764 -0.133106 -0.176925 -0.161736 0.121307 0.203398 0.270354 0.0702874 0.0934331 0.0823346 -0.0823346zm0.648094 2.4194l-0.143504 -0.143504 -0.565768 0.565764 -0.133106 -0.176925 -0.161736 0.121307 0.203398 0.270354 0.0702874 0.0934291 0.0823346 -0.0823307 0.648094 -0.648094zm-0.648094 -0.374402l0.648094 -0.648098 -0.143504 -0.143504 -0.565768 0.565768 -0.133106 -0.176929 -0.161736 0.121307 0.203398 0.270358 0.0702874 0.0934252 0.0823346 -0.0823268zm0 -1.0225l0.648094 -0.648098 -0.143504 -0.143504 -0.565768 0.565768 -0.133106 -0.176929 -0.161736 0.121307 0.203398 0.270358 0.0702874 0.0934331 0.0823346 -0.0823346z"/>
   <path id="_532241168" class="fil2" d="M1.16987 0.906661l4.48691 0 0 5.01334 -4.48691 0 0 -5.01334zm3.07193 0.884811l0.554358 -0.554354 0.29435 0.29435 -0.892689 0.892689 -0.14411 -0.191567 -0.267618 -0.355717 0.332398 -0.249307 0.123311 0.163906zm0 3.0675l0.554358 -0.554354 0.29435 0.29435 -0.892689 0.892681 -0.411728 -0.547276 0.332398 -0.249307 0.123311 0.163906zm0 -1.0225l0.554358 -0.554354 0.29435 0.29435 -0.892689 0.892677 -0.411728 -0.547272 0.332398 -0.249311 0.123311 0.163909zm0 -1.0225l0.554358 -0.554354 0.29435 0.29435 -0.892689 0.892693 -0.14411 -0.191567 -0.267618 -0.35572 0.332398 -0.249311 0.123311 0.163909zm-0.593535 0.277138l-1.92817 0 0 0.202972 1.92817 0 0 -0.202972zm0 -0.819528l0 -0.202969 -1.92817 0 0 0.202969 1.92817 0zm0 2.86453l-1.92817 0 0 0.202969 1.92817 0 0 -0.202969zm0 -1.0225l-1.92817 0 0 0.202972 1.92817 0 0 -0.202972z"/>
  </g>
 </g>
</svg>
