<?xml version="1.0" encoding="UTF-8"?>
<!DOCTYPE svg PUBLIC "-//W3C//DTD SVG 1.1//EN" "http://www.w3.org/Graphics/SVG/1.1/DTD/svg11.dtd">
<!-- Creator: CorelDRAW -->
<svg xmlns="http://www.w3.org/2000/svg" xml:space="preserve" width="6.82666in" height="6.82666in" style="shape-rendering:geometricPrecision; text-rendering:geometricPrecision; image-rendering:optimizeQuality; fill-rule:evenodd; clip-rule:evenodd"
viewBox="0 0 6.82666 6.82666"
 xmlns:xlink="http://www.w3.org/1999/xlink">
 <defs>
  <style type="text/css">
   <![CDATA[
    .fil0 {fill:none}
    .fil1 {fill:#424242;fill-rule:nonzero}
    .fil2 {fill:#64B5F6;fill-rule:nonzero}
   ]]>
  </style>
 </defs>
 <g id="Layer_x0020_1">
  <metadata id="CorelCorpID_0Corel-Layer"/>
  <rect class="fil0" width="6.82666" height="6.82666"/>
  <rect class="fil0" x="0.853331" y="0.853331" width="5.12" height="5.12"/>
  <path class="fil1" d="M2.2497 0.853327l2.33923 0c0.0686654,0 0.131016,0.0280197 0.176154,0.0731496 0.0451299,0.0451378 0.0731496,0.107488 0.0731496,0.176154l0 2.33923c0,0.0686654 -0.0280197,0.13102 -0.0731496,0.17615 -0.0451378,0.0451299 -0.107488,0.0731496 -0.176154,0.0731496l-2.33923 0c-0.0686654,0 -0.13102,-0.0280197 -0.17615,-0.0731496 -0.0451299,-0.0451299 -0.0731496,-0.107484 -0.0731496,-0.17615l0 -2.33923c0,-0.0686654 0.0280197,-0.131016 0.0731496,-0.176154 0.0451299,-0.0451299 0.107484,-0.0731496 0.17615,-0.0731496z"/>
  <path class="fil2" d="M2.2497 3.82015l2.33923 0c0.0686654,0 0.131016,0.0280197 0.176154,0.0731496 0.0451299,0.0451378 0.0731496,0.107488 0.0731496,0.176154l0 0.342327c0,0.0686693 -0.0280197,0.131024 -0.0731535,0.17615 -0.045126,0.0451339 -0.10748,0.0731535 -0.17615,0.0731535l-2.33923 0c-0.0686614,0 -0.13102,-0.0280197 -0.17615,-0.0731496 -0.0451299,-0.0451378 -0.0731496,-0.107488 -0.0731496,-0.176154l0 -0.342327c0,-0.0686654 0.0280118,-0.131024 0.0731496,-0.176154 0.0451299,-0.0451299 0.107484,-0.0731496 0.17615,-0.0731496z"/>
  <polygon class="fil2" points="4.83969,4.13394 5.07535,4.13394 5.07535,3.12805 5.28869,3.12805 5.28869,4.24061 5.28869,4.34728 5.18202,4.34728 4.83969,4.34728 "/>
  <path class="fil2" d="M5.06766 2.97911c-0.0589094,0 -0.106669,0.0477598 -0.106669,0.106669 0,0.0589094 0.0477598,0.106669 0.106669,0.106669l0.456681 0c0.0589094,0 0.106669,-0.0477598 0.106669,-0.106669 0,-0.0589094 -0.0477598,-0.106669 -0.106669,-0.106669l-0.456681 0z"/>
  <polygon class="fil2" points="2.01491,4.34728 1.67258,4.34728 1.56591,4.34728 1.56591,4.24061 1.56591,3.12805 1.77925,3.12805 1.77925,4.13394 2.01491,4.13394 "/>
  <path class="fil2" d="M1.75901 3.19245c0.0589094,0 0.106669,-0.0477598 0.106669,-0.106669 0,-0.0589094 -0.0477598,-0.106669 -0.106669,-0.106669l-0.456681 0c-0.0589094,0 -0.106669,0.0477598 -0.106669,0.106669 0,0.0589094 0.0477598,0.106669 0.106669,0.106669l0.456681 0z"/>
  <polygon class="fil2" points="3.52598,4.59195 3.52598,5.86666 3.31265,5.86666 3.31265,4.59195 "/>
  <polygon class="fil2" points="3.07699,5.75999 3.76164,5.75999 3.76164,5.97333 3.07699,5.97333 "/>
 </g>
</svg>
