<?xml version="1.0" encoding="UTF-8"?>
<!DOCTYPE svg PUBLIC "-//W3C//DTD SVG 1.1//EN" "http://www.w3.org/Graphics/SVG/1.1/DTD/svg11.dtd">
<!-- Creator: CorelDRAW -->
<svg xmlns="http://www.w3.org/2000/svg" xml:space="preserve" width="6.82666in" height="6.82666in" style="shape-rendering:geometricPrecision; text-rendering:geometricPrecision; image-rendering:optimizeQuality; fill-rule:evenodd; clip-rule:evenodd"
viewBox="0 0 6.82666 6.82666"
 xmlns:xlink="http://www.w3.org/1999/xlink">
 <defs>
  <style type="text/css">
   <![CDATA[
    .fil1 {fill:none}
    .fil0 {fill:#424242}
    .fil2 {fill:#64B5F6}
   ]]>
  </style>
 </defs>
 <g id="Layer_x0020_1">
  <metadata id="CorelCorpID_0Corel-Layer"/>
  <path class="fil0" d="M1.40104 1.23395l4.08604 0c0.0916693,0 0.166665,0.0749961 0.166665,0.166665l0 4.08604c0,0.0916693 -0.0749961,0.166665 -0.166665,0.166665l-4.08604 0c-0.0916693,0 -0.166665,-0.0749961 -0.166665,-0.166665l0 -1.78224 2.19457 0 -0.278909 0.25965 0.331531 0.356303 0.941768 -0.87674 -0.941768 -0.87674 -0.331531 0.356299 0.315921 0.294106 -2.23158 0 0 -1.81669c0,-0.0916693 0.0749961,-0.166665 0.166665,-0.166665z"/>
  <rect class="fil1" width="6.82666" height="6.82666"/>
  <rect class="fil1" x="0.853331" y="0.853331" width="5.12" height="5.12"/>
  <polygon class="fil2" points="3.67971,3.60577 0.951992,3.60577 0.951992,3.31596 3.71672,3.31596 3.28945,2.91819 3.48656,2.70635 4.27854,3.44364 3.48656,4.18093 3.28945,3.96908 "/>
 </g>
</svg>
