<?xml version="1.0" encoding="UTF-8"?>
<!DOCTYPE svg PUBLIC "-//W3C//DTD SVG 1.1//EN" "http://www.w3.org/Graphics/SVG/1.1/DTD/svg11.dtd">
<!-- Creator: CorelDRAW -->
<svg xmlns="http://www.w3.org/2000/svg" xml:space="preserve" width="6.82666in" height="6.82666in" style="shape-rendering:geometricPrecision; text-rendering:geometricPrecision; image-rendering:optimizeQuality; fill-rule:evenodd; clip-rule:evenodd"
viewBox="0 0 6.82666 6.82666"
 xmlns:xlink="http://www.w3.org/1999/xlink">
 <defs>
  <style type="text/css">
   <![CDATA[
    .fil2 {fill:none}
    .fil1 {fill:#424242}
    .fil0 {fill:#64B5F6}
   ]]>
  </style>
 </defs>
 <g id="Layer_x0020_1">
  <metadata id="CorelCorpID_0Corel-Layer"/>
  <path class="fil0" d="M2.80755 1.05906c-0.0925945,0.0434055 -0.172902,0.0988661 -0.241189,0.16598 0.0254252,0.00366142 0.051685,0.0135669 0.0721535,0.0222874 0.0342717,0.0146024 0.0671693,0.0346575 0.0991654,0.0536654 0.141571,0.0841181 0.26852,0.142685 0.439024,0.123551 0.0710787,-0.0127638 0.120358,-0.0448031 0.158917,-0.0863386 -0.0656732,-0.0345433 -0.129626,-0.0701654 -0.190799,-0.103898 -0.0700236,-0.0386142 -0.140102,-0.0774331 -0.211366,-0.11372 -0.0411339,-0.0209449 -0.0834567,-0.041622 -0.126508,-0.0597756l0.000602362 -0.00175197z"/>
  <path class="fil0" d="M4.27704 1.24196c-0.188768,-0.196646 -0.475177,-0.298701 -0.863713,-0.298701 -0.192228,0 -0.359449,0.0249961 -0.502228,0.0740433 0.0936811,0.0441496 0.186083,0.096626 0.273181,0.144654 0.0428031,0.0236024 0.0856102,0.0472008 0.128654,0.0703701 0.149657,0.0805591 0.321394,0.16876 0.487685,0.206291 0.0942598,0.0212717 0.184315,0.00438976 0.269067,-0.0399449 0.0676024,-0.0353661 0.124228,-0.0835787 0.181114,-0.133602 0.00841732,-0.00740551 0.017189,-0.0152205 0.0262402,-0.0231102z"/>
  <path class="fil1" d="M0.853331 5.88341l5.12 0 0 -0.0414016c0,-0.195343 -0.0516654,-0.371583 -0.168665,-0.528949 -0.231283,-0.311087 -0.675831,-0.486177 -1.027,-0.630016 -0.176953,-0.0724764 -0.368315,-0.147528 -0.531724,-0.246835 -0.130992,-0.0795984 -0.265846,-0.190417 -0.291394,-0.350929l-0.00517323 -0.0325039 0.0220039 -0.0244764c0.188665,-0.209827 0.348531,-0.489614 0.409772,-0.765303l0.00780315 -0.0351339 0.0332756 -0.0137008c0.0370157,-0.0152441 0.0685157,-0.0419252 0.0942283,-0.0721929 0.0401654,-0.0472992 0.069122,-0.107878 0.0880079,-0.166646 0.0207874,-0.0646693 0.0322205,-0.134669 0.0322205,-0.202661 0,-0.0987638 -0.0240512,-0.204425 -0.0889409,-0.2815l-0.0189606 -0.0225197 0.00518898 -0.0484331c0.0116496,-0.108697 0.0208228,-0.215626 0.0208228,-0.325146 0,-0.334134 -0.0735827,-0.599429 -0.22372,-0.790807 -0.00927559,0.00817717 -0.0179764,0.0160433 -0.0256417,0.0227795 -0.0686772,0.0603937 -0.137579,0.119748 -0.220854,0.159469 -0.0977913,0.0466417 -0.196205,0.0561063 -0.301878,0.0322598 -0.1275,-0.0287717 -0.257185,-0.0843228 -0.382071,-0.147091l0.00656693 0.00785039c-0.242087,0.215181 -0.436866,0.155551 -0.711154,-0.00742126 -0.0285315,-0.0169528 -0.0592087,-0.0360669 -0.0896969,-0.0490512 -0.00551575,-0.00235039 -0.0100984,-0.00382283 -0.017189,-0.00493701 -0.018122,-0.00285039 -0.0351378,0.00112992 -0.0495,0.0100433l-0.0470866 -0.0200354c-0.14811,0.191083 -0.220701,0.455059 -0.220701,0.786949 0,0.10952 0.00918504,0.216425 0.0208228,0.325126l0.00518898 0.0484449 -0.0189606 0.0225157c-0.0648898,0.0770709 -0.0889449,0.18274 -0.0889449,0.2815 0,0.0679843 0.011437,0.137988 0.0322205,0.202654 0.0188858,0.0587677 0.0478425,0.11935 0.0880118,0.16665 0.0257126,0.0302717 0.0572047,0.0569567 0.0942165,0.0721969l0.0332913 0.0136969 0.00780315 0.0351417c0.0612402,0.275693 0.221098,0.555476 0.409768,0.765303l0.0220039 0.0244724 -0.00517323 0.0325039c-0.0255433,0.160516 -0.160398,0.271339 -0.291382,0.350941 -0.163413,0.0992992 -0.35478,0.17435 -0.531732,0.246827 -0.0883268,0.0361811 -0.176669,0.0723701 -0.264142,0.110591 -0.470535,0.205602 -0.931531,0.471134 -0.931531,1.04837l0 0.0414016z"/>
  <rect class="fil2" width="6.82666" height="6.82666"/>
  <rect class="fil2" x="0.853331" y="0.853331" width="5.12" height="5.12"/>
 </g>
</svg>
