<?xml version="1.0" encoding="UTF-8"?>
<!DOCTYPE svg PUBLIC "-//W3C//DTD SVG 1.1//EN" "http://www.w3.org/Graphics/SVG/1.1/DTD/svg11.dtd">
<!-- Creator: CorelDRAW -->
<svg xmlns="http://www.w3.org/2000/svg" xml:space="preserve" width="6.82666in" height="6.82666in" style="shape-rendering:geometricPrecision; text-rendering:geometricPrecision; image-rendering:optimizeQuality; fill-rule:evenodd; clip-rule:evenodd"
viewBox="0 0 6.82666 6.82666"
 xmlns:xlink="http://www.w3.org/1999/xlink">
 <defs>
  <style type="text/css">
   <![CDATA[
    .fil0 {fill:none}
    .fil1 {fill:#424242}
    .fil2 {fill:#64B5F6}
   ]]>
  </style>
 </defs>
 <g id="Layer_x0020_1">
  <metadata id="CorelCorpID_0Corel-Layer"/>
  <rect class="fil0" width="6.82666" height="6.82666"/>
  <rect class="fil0" x="0.853331" y="0.853331" width="5.12" height="5.12"/>
  <path class="fil1" d="M1.6 0.853327l2.84 0 0 0.893339 0.893339 0 0 4.12 0 0.106669 -0.106669 0 -3.62667 0 -0.106669 0 0 -0.106669 0 -4.90667 0 -0.106669 0.106669 0zm1.43652 1.06667c0.246051,0 0.468823,0.0997441 0.630083,0.261 0.161256,0.16126 0.261,0.384031 0.261,0.630083 0,0.246051 -0.0997441,0.468823 -0.261,0.630083 -0.0441811,0.0441772 -0.0929882,0.0837283 -0.145614,0.117886l1.05235 1.93678 -0.186669 0.101669 -1.05671 -1.9448c-0.0918898,0.0320433 -0.19063,0.0494646 -0.293441,0.0494646 -0.246051,0 -0.468823,-0.0997441 -0.630083,-0.261 -0.161256,-0.16126 -0.261,-0.384031 -0.261,-0.630083 0,-0.246051 0.0997441,-0.468823 0.261,-0.630083 0.16126,-0.161256 0.384031,-0.261 0.630083,-0.261z"/>
  <polygon class="fil2" points="5.30167,1.62784 4.55485,0.884579 4.52,0.870059 4.52,1.66666 5.33333,1.66666 5.33333,1.65936 "/>
  <path class="fil2" d="M3.71426 2.81107c0,-0.187165 -0.0758583,-0.356606 -0.198496,-0.479248 -0.122642,-0.122638 -0.292083,-0.198496 -0.479248,-0.198496 -0.187165,0 -0.356606,0.0758583 -0.479248,0.198496 -0.122638,0.122642 -0.198496,0.292083 -0.198496,0.479248 0,0.187165 0.0758583,0.356606 0.198496,0.479248 0.122642,0.122638 0.292083,0.198496 0.479248,0.198496 0.187165,0 0.356606,-0.0758583 0.479248,-0.198496 0.122638,-0.122642 0.198496,-0.292083 0.198496,-0.479248z"/>
 </g>
</svg>
