<?xml version="1.0" encoding="UTF-8"?>
<!DOCTYPE svg PUBLIC "-//W3C//DTD SVG 1.1//EN" "http://www.w3.org/Graphics/SVG/1.1/DTD/svg11.dtd">
<!-- Creator: CorelDRAW -->
<svg xmlns="http://www.w3.org/2000/svg" xml:space="preserve" width="6.82666in" height="6.82666in" style="shape-rendering:geometricPrecision; text-rendering:geometricPrecision; image-rendering:optimizeQuality; fill-rule:evenodd; clip-rule:evenodd"
viewBox="0 0 6.82666 6.82666"
 xmlns:xlink="http://www.w3.org/1999/xlink">
 <defs>
  <style type="text/css">
   <![CDATA[
    .fil0 {fill:none}
    .fil2 {fill:#424242}
    .fil3 {fill:#64B5F6}
    .fil1 {fill:#424242;fill-rule:nonzero}
   ]]>
  </style>
 </defs>
 <g id="Layer_x0020_1">
  <metadata id="CorelCorpID_0Corel-Layer"/>
  <rect class="fil0" width="6.82666" height="6.82666"/>
  <rect class="fil0" x="0.853331" y="0.853331" width="5.12" height="5.12"/>
  <path class="fil1" d="M2.02741 0.899626c0.404717,-0.101996 0.812701,-0.0301575 1.14514,0.168445 0.332374,0.198567 0.588992,0.523878 0.691059,0.928854 0.101996,0.404717 0.0301575,0.812701 -0.168445,1.14514 -0.198563,0.33237 -0.523878,0.588992 -0.928858,0.691059 -0.404717,0.101996 -0.812701,0.0301575 -1.14514,-0.168445 -0.332374,-0.198567 -0.588992,-0.523878 -0.691055,-0.928858 -0.101996,-0.404717 -0.0301575,-0.812701 0.168445,-1.14514 0.198567,-0.332374 0.523878,-0.588992 0.928854,-0.691055zm1.03597 0.350949c-0.285374,-0.170488 -0.636031,-0.232051 -0.984303,-0.14428 -0.348008,0.0877047 -0.627496,0.308114 -0.79802,0.593551 -0.170488,0.285374 -0.232051,0.636031 -0.14428,0.984303 0.0877047,0.348012 0.30811,0.6275 0.593551,0.798024 0.285374,0.170488 0.636031,0.232051 0.984303,0.14428 0.348012,-0.0877087 0.6275,-0.308118 0.798024,-0.593555 0.170488,-0.285374 0.232051,-0.636031 0.14428,-0.984303 -0.0877087,-0.348008 -0.308118,-0.627496 -0.593555,-0.79802z"/>
  <path class="fil2" d="M3.49288 3.39426l1.77908 1.93615c0.0645945,0.0702953 0.0601024,0.180016 -0.0101339,0.24465 -0.0702244,0.0646181 -0.180028,0.060126 -0.244583,-0.0101299l-1.77908 -1.93615c-0.0645906,-0.0702992 -0.0601024,-0.180016 0.0101339,-0.24465 0.0702244,-0.0646181 0.179921,-0.0600315 0.244583,0.0101299z"/>
  <path class="fil0" d="M1.7687 2.99611c-0.272402,-0.272402 -0.327882,-0.693807 -0.135264,-1.02743 0.235039,-0.407098 0.755594,-0.546583 1.1627,-0.311543"/>
  <path class="fil3" d="M1.698 3.06681c-0.148283,-0.14828 -0.242882,-0.340669 -0.270244,-0.548516 -0.0273465,-0.207756 0.0144921,-0.417878 0.119268,-0.599358 0.126539,-0.219173 0.332972,-0.377854 0.577429,-0.443354 0.175681,-0.0470709 0.359535,-0.0423543 0.530327,0.0112165l-0.0401614 -0.149894 0.193047 -0.0515866 0.119457 0.445811 -0.0914567 0.028811 -0.336417 0.105988 -0.0594055 -0.190732 0.0644646 -0.020311c-0.108043,-0.0194921 -0.220083,-0.0152402 -0.328224,0.0137362 -0.193055,0.0517244 -0.356252,0.176634 -0.456224,0.349795 -0.0828701,0.143535 -0.115866,0.309685 -0.0942362,0.473988 0.0216142,0.164197 0.0967008,0.315906 0.213787,0.432996l0.0235709 0.0235669 -0.141413 0.141413 -0.0235669 -0.0235709z"/>
  <polyline class="fil0" points="2.71977,1.34331 2.80586,1.66461 2.50133,1.76055 "/>
  <path class="fil0" d="M2.9965 1.78034c0.272402,0.272402 0.327882,0.693803 0.135264,1.02743 -0.235039,0.407098 -0.755594,0.546583 -1.1627,0.311543"/>
  <path class="fil3" d="M3.06721 1.70963c0.148283,0.14828 0.242882,0.340669 0.270244,0.548516 0.0273465,0.207752 -0.0144921,0.417878 -0.119268,0.599358 -0.126539,0.219173 -0.332972,0.377854 -0.577429,0.443354 -0.175681,0.0470709 -0.359535,0.0423543 -0.530327,-0.0112165l0.0401614 0.149894 -0.193047 0.0515866 -0.119449 -0.445807 0.0914488 -0.028815 0.336417 -0.105988 0.0594055 0.190732 -0.0644646 0.020311c0.108043,0.0194921 0.220083,0.0152402 0.328224,-0.0137362 0.193055,-0.0517244 0.356252,-0.176634 0.456224,-0.349795 0.0828701,-0.143535 0.115866,-0.309685 0.0942362,-0.473988 -0.0216142,-0.164197 -0.0967008,-0.315906 -0.213787,-0.432996l-0.0235709 -0.0235669 0.141413 -0.141413 0.0235669 0.0235709z"/>
  <polyline class="fil0" points="2.04544,3.43314 1.95935,3.11184 2.26387,3.0159 "/>
 </g>
</svg>
