<?xml version="1.0" encoding="UTF-8"?>
<!DOCTYPE svg PUBLIC "-//W3C//DTD SVG 1.1//EN" "http://www.w3.org/Graphics/SVG/1.1/DTD/svg11.dtd">
<!-- Creator: CorelDRAW -->
<svg xmlns="http://www.w3.org/2000/svg" xml:space="preserve" width="6.82666in" height="6.82666in" style="shape-rendering:geometricPrecision; text-rendering:geometricPrecision; image-rendering:optimizeQuality; fill-rule:evenodd; clip-rule:evenodd"
viewBox="0 0 6.82666 6.82666"
 xmlns:xlink="http://www.w3.org/1999/xlink">
 <defs>
  <style type="text/css">
   <![CDATA[
    .fil0 {fill:none}
    .fil1 {fill:#424242}
    .fil2 {fill:#64B5F6;fill-rule:nonzero}
   ]]>
  </style>
 </defs>
 <g id="Layer_x0020_1">
  <metadata id="CorelCorpID_0Corel-Layer"/>
  <rect class="fil0" width="6.82666" height="6.82666"/>
  <rect class="fil0" x="0.853331" y="0.853331" width="5.12" height="5.12"/>
  <path class="fil1" d="M2.07506 4.01866c-0.0211457,0.00972047 -0.0372874,0.0251575 -0.0472323,0.0467126 -0.00759843,0.0164567 -0.0104409,0.0349961 -0.00848031,0.0529961 0.00173622,0.0159606 0.00717323,0.031563 0.0159685,0.0450079l0.00404724 0.00530709c0.0155709,0.0203976 0.0365276,0.0323858 0.0617874,0.0365315 0.0230039,0.00377559 0.0459724,0.00814961 0.0688976,0.0123819 0.0435551,0.00804724 0.0871181,0.0160551 0.130795,0.0234094 0.0386417,0.00650394 0.0775787,0.012689 0.116508,0.017185 0.0167638,0.00193701 0.0464409,0.00583071 0.0631575,0.00406299l1.31793 -0.219177 1.27373 0.207453 0.00574803 0.00144094c0.133961,0.0335669 0.255177,0.0240315 0.382831,-0.0260866 0.0621417,-0.0243976 0.116665,-0.0626142 0.154957,-0.117831 0.0171772,-0.0247717 0.035937,-0.0616299 0.0409134,-0.091878 0.00786614,-0.0478268 0.00299606,-0.0925906 -0.0179094,-0.136488 -0.0566732,-0.119 -0.22389,-0.211579 -0.335382,-0.275846 -0.0504488,-0.0290787 -0.106469,-0.0598661 -0.152031,-0.0959567 -0.0598976,-0.0474488 -0.104677,-0.0734213 -0.178516,-0.0986102 -0.0544764,-0.0185827 -0.11163,-0.032437 -0.167811,-0.044748 -0.0929803,-0.020378 -0.18724,-0.0368661 -0.28115,-0.0523228l-2.4989 -0.411331 -0.425953 -0.882508c-0.00840551,-0.0174173 -0.0207874,-0.0326496 -0.0362953,-0.0442362 -0.0155,-0.0115827 -0.0336614,-0.0190079 -0.0527283,-0.0221457l-0.163563 -0.0269134c-0.0174213,-0.00286614 -0.0353622,-0.00201969 -0.0523543,0.00283858 -0.0170906,0.00488583 -0.0327953,0.013685 -0.0461378,0.0254016 -0.0134094,0.0117795 -0.0239843,0.0264449 -0.031063,0.0428189 -0.00698819,0.0161693 -0.0105039,0.0337992 -0.00990157,0.0514213l0.0325551 0.952941 -0.117772 -0.0163819c-0.0874646,-0.0121693 -0.138984,-0.00637795 -0.1625,0.0880276l-0.0012874 0.00516142c-0.0079252,0.0382205 -0.00360236,0.0965866 0.00590551,0.132472 0.00770079,0.0290669 0.0235472,0.0675079 0.054937,0.0779528l1.57553 0.524213 -0.519232 0.206724z"/>
  <path class="fil2" d="M0.96 4.79011c-0.0589094,0 -0.106669,0.0477598 -0.106669,0.106669 0,0.0589094 0.0477598,0.106669 0.106669,0.106669l4.90667 0c0.0589094,0 0.106669,-0.0477598 0.106669,-0.106669 0,-0.0589094 -0.0477598,-0.106669 -0.106669,-0.106669l-4.90667 0z"/>
 </g>
</svg>
