<?xml version="1.0" encoding="UTF-8"?>
<!DOCTYPE svg PUBLIC "-//W3C//DTD SVG 1.1//EN" "http://www.w3.org/Graphics/SVG/1.1/DTD/svg11.dtd">
<!-- Creator: CorelDRAW -->
<svg xmlns="http://www.w3.org/2000/svg" xml:space="preserve" width="6.82666in" height="6.82666in" style="shape-rendering:geometricPrecision; text-rendering:geometricPrecision; image-rendering:optimizeQuality; fill-rule:evenodd; clip-rule:evenodd"
viewBox="0 0 6.82666 6.82666"
 xmlns:xlink="http://www.w3.org/1999/xlink">
 <defs>
  <style type="text/css">
   <![CDATA[
    .fil0 {fill:none}
    .fil2 {fill:#424242}
    .fil1 {fill:#64B5F6;fill-rule:nonzero}
   ]]>
  </style>
 </defs>
 <g id="Layer_x0020_1">
  <metadata id="CorelCorpID_0Corel-Layer"/>
  <rect class="fil0" width="6.82666" height="6.82666"/>
  <rect class="fil0" x="0.853331" y="0.853331" width="5.12" height="5.12"/>
  <path class="fil1" d="M0.96 4.79011c-0.0589094,0 -0.106669,0.0477598 -0.106669,0.106669 0,0.0589094 0.0477598,0.106669 0.106669,0.106669l4.90667 0c0.0589094,0 0.106669,-0.0477598 0.106669,-0.106669 0,-0.0589094 -0.0477598,-0.106669 -0.106669,-0.106669l-4.90667 0z"/>
  <path class="fil2" d="M2.74471 4.32919c-0.0124094,0.019689 -0.0175079,0.041437 -0.0140709,0.0649252 0.00261811,0.017937 0.0103583,0.0350197 0.0218307,0.0490276 0.0101693,0.0124252 0.0232402,0.0225276 0.0379488,0.0289921l0.00629134 0.00223622c0.0241811,0.00858661 0.0482835,0.00718898 0.0717087,-0.00312598 0.0213346,-0.00939764 0.0429646,-0.0182717 0.0644843,-0.0272441 0.0408858,-0.0170354 0.081752,-0.0341102 0.122362,-0.0517953 0.0359252,-0.0156496 0.0719252,-0.0317244 0.106992,-0.0492126 0.0151024,-0.0075315 0.0420945,-0.0204685 0.0551339,-0.0310787l0.984512 -0.903173 1.1804 -0.521606 0.00560236 -0.00192913c0.130559,-0.0450157 0.226909,-0.119185 0.306496,-0.23087 0.0387402,-0.0543661 0.0635591,-0.116154 0.0654921,-0.183319 0.000866142,-0.0301339 -0.00353937,-0.0712559 -0.0158858,-0.099315 -0.0195197,-0.0443622 -0.0480394,-0.0792087 -0.0895197,-0.104571 -0.112453,-0.0687598 -0.303094,-0.0550276 -0.431591,-0.048 -0.0581417,0.0031811 -0.121886,0.00797244 -0.17976,0.00261024 -0.0760906,-0.00705118 -0.127787,-0.0043622 -0.203402,0.0148465 -0.0557874,0.0141732 -0.111232,0.0337717 -0.165024,0.0541299 -0.0890276,0.033689 -0.177,0.0713386 -0.264118,0.109661l-2.31817 1.01969 -0.838685 -0.506815c-0.0165512,-0.0100039 -0.0352441,-0.0160039 -0.054563,-0.0172441 -0.0193071,-0.00124409 -0.0385787,0.00245276 -0.0562638,0.0102323l-0.151728 0.066752c-0.0161614,0.00711024 -0.0307323,0.0176142 -0.042315,0.0309606 -0.0116496,0.0134252 -0.0200039,0.0293701 -0.0247874,0.0464724 -0.00480315,0.017189 -0.00565354,0.035248 -0.00264567,0.0528346 0.00297244,0.0173622 0.00965354,0.0340512 0.0197795,0.0484843l0.547547 0.78061 -0.107614 0.0505709c-0.0799213,0.0375591 -0.119925,0.0705394 -0.0880827,0.162472l0.00173622 0.00502756c0.0142283,0.0363465 0.0497165,0.0828858 0.0772756,0.10776 0.0223189,0.0201496 0.0565827,0.0437047 0.0885866,0.035315l1.60619 -0.420992 -0.32215 0.456677z"/>
 </g>
</svg>
