<?xml version="1.0" encoding="UTF-8"?>
<!DOCTYPE svg PUBLIC "-//W3C//DTD SVG 1.1//EN" "http://www.w3.org/Graphics/SVG/1.1/DTD/svg11.dtd">
<!-- Creator: CorelDRAW -->
<svg xmlns="http://www.w3.org/2000/svg" xml:space="preserve" width="6.82666in" height="6.82666in" style="shape-rendering:geometricPrecision; text-rendering:geometricPrecision; image-rendering:optimizeQuality; fill-rule:evenodd; clip-rule:evenodd"
viewBox="0 0 6.82666 6.82666"
 xmlns:xlink="http://www.w3.org/1999/xlink">
 <defs>
  <style type="text/css">
   <![CDATA[
    .fil0 {fill:none}
    .fil1 {fill:#424242}
    .fil3 {fill:#64B5F6}
    .fil2 {fill:#424242;fill-rule:nonzero}
   ]]>
  </style>
 </defs>
 <g id="Layer_x0020_1">
  <metadata id="CorelCorpID_0Corel-Layer"/>
  <rect class="fil0" width="6.82666" height="6.82666"/>
  <rect class="fil0" x="0.853331" y="0.853331" width="5.12" height="5.12"/>
  <path class="fil1" d="M5.54738 4.84l0 -3.49333 -3.49333 0 0 0.0433268 -0.346669 0 0 -0.0666654c0,-0.0859291 0.0341063,-0.167764 0.0948386,-0.228492 0.0607283,-0.0607323 0.142563,-0.0948386 0.228492,-0.0948386l3.54001 0c0.0859291,0 0.167764,0.0341063 0.228492,0.0948386 0.0607323,0.0607283 0.0948386,0.142563 0.0948386,0.228492l0 3.54001c0,0.0859291 -0.0341063,0.167764 -0.0948386,0.228492 -0.0607283,0.0607323 -0.142563,0.0948386 -0.228492,0.0948386l-0.0666654 0 0 -0.346669 0.0433268 0z"/>
  <path class="fil2" d="M5.35738 5.12l0 -0.213339 0.213335 0 0 0.213339 -0.213335 0zm-3.58334 -3.79667l0 0.0621378 0.213339 0 0 -0.0621378 -0.213339 0zm0 0.275472l0.213339 0 0 0.213335 -0.213339 0 0 -0.213335zm0 0.426669l0.213339 0 0 0.213335 -0.213339 0 0 -0.213335zm0 0.426669l0.213339 0 0 0.213335 -0.213339 0 0 -0.213335zm0 0.426669l0.213339 0 0 0.213335 -0.213339 0 0 -0.213335zm0 0.426669l0.213339 0 0 0.213335 -0.213339 0 0 -0.213335zm0 0.426669l0.213339 0 0 0.213335 -0.213339 0 0 -0.213335zm0 0.426669l0.213339 0 0 0.213335 -0.213339 0 0 -0.213335zm0 0.426669l0.213339 0 0 0.213335 -0.213339 0 0 -0.213335zm0.116697 0.492827c0.042,0.0274764 0.0898425,0.0414449 0.139969,0.041689l0.126657 0 0 -0.213339 -0.126657 0c-0.00875591,0 -0.0164882,-0.00249606 -0.0237874,-0.00727165l-0.116181 0.178921zm0.479961 0.041689l0 -0.213339 0.213335 0 0 0.213339 -0.213335 0zm0.426669 0l0 -0.213339 0.213335 0 0 0.213339 -0.213335 0zm0.426669 0l0 -0.213339 0.213335 0 0 0.213339 -0.213335 0zm0.426665 0l0 -0.213339 0.213335 0 0 0.213339 -0.213335 0zm0.426669 0l0 -0.213339 0.213335 0 0 0.213339 -0.213335 0zm0.426669 0l0 -0.213339 0.213335 0 0 0.213339 -0.213335 0zm0.426669 0l0 -0.213339 0.213335 0 0 0.213339 -0.213335 0z"/>
  <path class="fil3" d="M1.27928 5.48l2.08139 0 0 0.346669 -2.10473 0c-0.0859291,0 -0.167764,-0.0341063 -0.228492,-0.0948386 -0.0607323,-0.0607283 -0.0948386,-0.142563 -0.0948386,-0.228492l0 -2.05 0.346669 0 0 2.02666z"/>
 </g>
</svg>
