<?xml version="1.0" encoding="UTF-8"?>
<!DOCTYPE svg PUBLIC "-//W3C//DTD SVG 1.1//EN" "http://www.w3.org/Graphics/SVG/1.1/DTD/svg11.dtd">
<!-- Creator: CorelDRAW -->
<svg xmlns="http://www.w3.org/2000/svg" xml:space="preserve" width="6.82666in" height="6.82666in" style="shape-rendering:geometricPrecision; text-rendering:geometricPrecision; image-rendering:optimizeQuality; fill-rule:evenodd; clip-rule:evenodd"
viewBox="0 0 6.82666 6.82666"
 xmlns:xlink="http://www.w3.org/1999/xlink">
 <defs>
  <style type="text/css">
   <![CDATA[
    .fil1 {fill:none}
    .fil0 {fill:#64B5F6}
    .fil2 {fill:#424242;fill-rule:nonzero}
   ]]>
  </style>
 </defs>
 <g id="Layer_x0020_1">
  <metadata id="CorelCorpID_0Corel-Layer"/>
  <path class="fil0" d="M1.06666 3.30666l4.69334 0 0.106669 0 0 0.106669 0 1.38667 0 0.106669 -0.106669 0 -4.69334 0 -0.106669 0 0 -0.106669 0 -1.38667 0 -0.106669 0.106669 0zm1.78441 0.912287l0 -0.142996 0.369146 0 0 0.337937c-0.0359449,0.0347598 -0.0878898,0.065374 -0.156031,0.0918425 -0.0681417,0.0262677 -0.137071,0.0395 -0.206791,0.0395 -0.0886811,0 -0.166106,-0.0185669 -0.232075,-0.0556969 -0.0659685,-0.0373307 -0.115543,-0.0904606 -0.148724,-0.159783 -0.0331811,-0.0693268 -0.0497717,-0.144579 -0.0497717,-0.225953 0,-0.0882874 0.0185669,-0.166894 0.0555,-0.235626 0.0371339,-0.0685354 0.091248,-0.121272 0.162748,-0.157811 0.054315,-0.0282441 0.122059,-0.0422677 0.203039,-0.0422677 0.105272,0 0.187634,0.022122 0.246689,0.0661654 0.059252,0.0442441 0.0973701,0.105272 0.114358,0.183287l-0.170055 0.0317992c-0.0120472,-0.0416732 -0.0345669,-0.0746575 -0.0675472,-0.098752 -0.0329843,-0.0240984 -0.0740669,-0.0361457 -0.123445,-0.0361457 -0.0748543,0 -0.134307,0.0237008 -0.178547,0.0711024 -0.0442441,0.0476024 -0.0661654,0.117913 -0.0661654,0.211335 0,0.100535 0.0223189,0.176181 0.0671535,0.226543 0.0446339,0.0503661 0.103295,0.0754488 0.17578,0.0754488 0.0359488,0 0.0718937,-0.00711024 0.108039,-0.0211339 0.0359449,-0.0140236 0.0669567,-0.0312047 0.0928307,-0.0511535l0 -0.107642 -0.19613 0zm0.576681 0.311866l0 -0.848303 0.17124 0 0 0.848303 -0.17124 0zm0.390425 0l0 -0.848303 0.581665 0 0 0.143591 -0.410228 0 0 0.200669 0.354134 0 0 0.143591 -0.354134 0 0 0.360453 -0.171437 0z"/>
  <rect class="fil1" width="6.82666" height="6.82666"/>
  <rect class="fil1" x="0.853331" y="0.853331" width="5.12" height="5.12"/>
  <path class="fil2" d="M1.79809 0.959992l3.23049 0c0.0545906,0 0.104138,0.0222559 0.139988,0.0581063 0.0358504,0.0358504 0.0581063,0.0853976 0.0581063,0.139988l0 2.04191 -0.213339 0 0 -2.02667 -3.2 0 0 2.02667 -0.213339 0 0 -2.04191c0,-0.0545906 0.0222559,-0.104138 0.0581063,-0.139988 0.0358504,-0.0358504 0.0853976,-0.0581063 0.139988,-0.0581063zm3.42858 4.05334l0 0.655244c0,0.0545906 -0.0222559,0.104138 -0.0581063,0.139988 -0.0358504,0.0358504 -0.0853976,0.0581063 -0.139988,0.0581063l-3.23049 0c-0.0545906,0 -0.104138,-0.0222559 -0.139988,-0.0581063 -0.0358504,-0.0358504 -0.0581063,-0.0853976 -0.0581063,-0.139988l0 -0.655244 0.213339 0 0 0.64 3.2 0 0 -0.64 0.213339 0z"/>
  <polygon class="fil2" points="2.29333,1.59999 4.53333,1.59999 4.53333,1.81333 2.29333,1.81333 "/>
  <polygon class="fil2" points="2.29333,2.45333 4.53333,2.45333 4.53333,2.66667 2.29333,2.66667 "/>
 </g>
</svg>
