<?xml version="1.0" encoding="UTF-8"?>
<!DOCTYPE svg PUBLIC "-//W3C//DTD SVG 1.1//EN" "http://www.w3.org/Graphics/SVG/1.1/DTD/svg11.dtd">
<!-- Creator: CorelDRAW -->
<svg xmlns="http://www.w3.org/2000/svg" xml:space="preserve" width="6.82666in" height="6.82666in" style="shape-rendering:geometricPrecision; text-rendering:geometricPrecision; image-rendering:optimizeQuality; fill-rule:evenodd; clip-rule:evenodd"
viewBox="0 0 6.82666 6.82666"
 xmlns:xlink="http://www.w3.org/1999/xlink">
 <defs>
  <style type="text/css">
   <![CDATA[
    .fil0 {fill:none}
    .fil2 {fill:#424242;fill-rule:nonzero}
    .fil1 {fill:#64B5F6;fill-rule:nonzero}
   ]]>
  </style>
 </defs>
 <g id="Layer_x0020_1">
  <metadata id="CorelCorpID_0Corel-Layer"/>
  <rect class="fil0" width="6.82666" height="6.82666"/>
  <rect class="fil0" x="0.853331" y="0.853331" width="5.12" height="5.12"/>
  <path class="fil1" d="M3.41333 0.989559c0.17752,0 0.338252,0.0719646 0.454602,0.188315 0.11635,0.116346 0.188315,0.277083 0.188315,0.454602 0,0.17752 -0.0719646,0.338252 -0.188315,0.454598 -0.11635,0.11635 -0.277083,0.188315 -0.454602,0.188315 -0.17752,0 -0.338252,-0.0719646 -0.454602,-0.188315 -0.11635,-0.116346 -0.188315,-0.277079 -0.188315,-0.454598 0,-0.17752 0.0719646,-0.338256 0.188315,-0.454602 0.11635,-0.11635 0.277083,-0.188315 0.454602,-0.188315zm0 3.56171c0.17752,0 0.338252,0.0719646 0.454602,0.188315 0.11635,0.116346 0.188315,0.277083 0.188315,0.454602 0,0.17752 -0.0719646,0.338252 -0.188315,0.454598 -0.11635,0.11635 -0.277083,0.188315 -0.454602,0.188315 -0.17752,0 -0.338252,-0.0719646 -0.454602,-0.188315 -0.11635,-0.116346 -0.188315,-0.277079 -0.188315,-0.454598 0,-0.17752 0.0719646,-0.338256 0.188315,-0.454602 0.11635,-0.11635 0.277083,-0.188315 0.454602,-0.188315z"/>
  <path class="fil2" d="M5.1272 1.69946c0.125524,0.125528 0.188291,0.290067 0.188291,0.45461 3.93701e-006,0.164543 -0.0627677,0.329087 -0.188291,0.454614 -0.125528,0.125524 -0.290067,0.188291 -0.45461,0.188291 -0.164543,0 -0.329087,-0.0627717 -0.45461,-0.188295 -0.125524,-0.125524 -0.188295,-0.290067 -0.188295,-0.45461 0,-0.164543 0.0627677,-0.329083 0.188291,-0.45461 0.125528,-0.125524 0.290071,-0.188295 0.454614,-0.188291 0.164543,0 0.329083,0.0627677 0.45461,0.188291zm-2.51851 2.51851c0.125524,0.125528 0.188291,0.290067 0.188291,0.454614 3.93701e-006,0.164539 -0.0627677,0.329083 -0.188291,0.45461 -0.125528,0.125524 -0.290067,0.188291 -0.45461,0.188291 -0.164543,0 -0.329087,-0.0627677 -0.45461,-0.188295 -0.125528,-0.125524 -0.188295,-0.290067 -0.188295,-0.45461 0,-0.164543 0.0627677,-0.329083 0.188291,-0.45461 0.125528,-0.125524 0.290071,-0.188295 0.45461,-0.188291 0.164547,0 0.329087,0.0627677 0.454614,0.188291z"/>
  <path class="fil1" d="M5.8371 3.41333c0,0.17752 -0.0719646,0.338252 -0.188315,0.454602 -0.116346,0.11635 -0.277083,0.188315 -0.454602,0.188315 -0.17752,0 -0.338252,-0.0719646 -0.454598,-0.188315 -0.11635,-0.11635 -0.188315,-0.277083 -0.188315,-0.454602 0,-0.17752 0.0719646,-0.338252 0.188315,-0.454602 0.116346,-0.11635 0.277079,-0.188315 0.454598,-0.188315 0.17752,0 0.338256,0.0719646 0.454602,0.188315 0.11635,0.11635 0.188315,0.277083 0.188315,0.454602zm-3.56171 0c0,0.17752 -0.0719646,0.338252 -0.188315,0.454602 -0.116346,0.11635 -0.277083,0.188315 -0.454602,0.188315 -0.17752,0 -0.338252,-0.0719646 -0.454598,-0.188315 -0.11635,-0.11635 -0.188315,-0.277083 -0.188315,-0.454602 0,-0.17752 0.0719646,-0.338252 0.188315,-0.454602 0.116346,-0.11635 0.277079,-0.188315 0.454598,-0.188315 0.17752,0 0.338256,0.0719646 0.454602,0.188315 0.11635,0.11635 0.188315,0.277083 0.188315,0.454602z"/>
  <path class="fil2" d="M5.1272 5.1272c-0.125528,0.125524 -0.290067,0.188291 -0.45461,0.188291 -0.164543,3.93701e-006 -0.329087,-0.0627677 -0.454614,-0.188291 -0.125524,-0.125528 -0.188291,-0.290067 -0.188291,-0.45461 0,-0.164543 0.0627717,-0.329087 0.188295,-0.45461 0.125524,-0.125524 0.290067,-0.188295 0.45461,-0.188295 0.164543,0 0.329083,0.0627677 0.45461,0.188291 0.125524,0.125528 0.188295,0.290071 0.188291,0.454614 0,0.164543 -0.0627677,0.329083 -0.188291,0.45461zm-2.51851 -2.51851c-0.125528,0.125524 -0.290067,0.188291 -0.454614,0.188291 -0.164539,3.93701e-006 -0.329083,-0.0627677 -0.45461,-0.188291 -0.125524,-0.125528 -0.188291,-0.290067 -0.188291,-0.45461 0,-0.164543 0.0627677,-0.329087 0.188295,-0.45461 0.125524,-0.125528 0.290067,-0.188295 0.45461,-0.188295 0.164543,0 0.329083,0.0627677 0.45461,0.188291 0.125524,0.125528 0.188295,0.290071 0.188291,0.45461 0,0.164547 -0.0627677,0.329087 -0.188291,0.454614z"/>
 </g>
</svg>
