<?xml version="1.0" encoding="UTF-8"?>
<!DOCTYPE svg PUBLIC "-//W3C//DTD SVG 1.1//EN" "http://www.w3.org/Graphics/SVG/1.1/DTD/svg11.dtd">
<!-- Creator: CorelDRAW -->
<svg xmlns="http://www.w3.org/2000/svg" xml:space="preserve" width="6.82666in" height="6.82666in" style="shape-rendering:geometricPrecision; text-rendering:geometricPrecision; image-rendering:optimizeQuality; fill-rule:evenodd; clip-rule:evenodd"
viewBox="0 0 6.82666 6.82666"
 xmlns:xlink="http://www.w3.org/1999/xlink">
 <defs>
  <style type="text/css">
   <![CDATA[
    .fil0 {fill:none}
    .fil1 {fill:#424242}
    .fil2 {fill:#64B5F6}
   ]]>
  </style>
 </defs>
 <g id="Layer_x0020_1">
  <metadata id="CorelCorpID_0Corel-Layer"/>
  <rect class="fil0" width="6.82666" height="6.82666"/>
  <rect class="fil0" x="0.853331" y="0.853331" width="5.12" height="5.12"/>
  <path class="fil1" d="M1.93226 0.853327l3.06841 0c0.0751024,0 0.143311,0.0306496 0.192685,0.0800236 0.049374,0.049374 0.0800236,0.117583 0.0800236,0.192685l0 3.49346c0,0.0751024 -0.0306496,0.143307 -0.0800236,0.192681 -0.049374,0.049374 -0.117583,0.0800236 -0.192685,0.0800236l-0.254232 0 -0.362299 0.866622 -0.0830039 0.198543 -0.107413 -0.186043 -0.507563 -0.879122 -1.75389 0c-0.0751024,0 -0.143311,-0.0306496 -0.192685,-0.0800236 -0.049374,-0.049374 -0.0800236,-0.117579 -0.0800236,-0.192681l0 -3.49346c0,-0.0751063 0.0306496,-0.143311 0.0800236,-0.192685 0.049374,-0.049374 0.117579,-0.0800236 0.192685,-0.0800236zm1.79231 2.40578c-0.0172953,0.0634252 -0.0190236,0.157685 -0.0202677,0.223276l-0.00198425 0.104642 -0.484906 0 -0.00296063 -0.103622c-0.000846457,-0.0296969 -0.0016811,-0.0595236 -0.0016811,-0.0892362 0,-0.111925 0.0146142,-0.226035 0.0551929,-0.330902 0.0306693,-0.0792677 0.0767283,-0.151555 0.13089,-0.216772 0.0619134,-0.0745512 0.145539,-0.147705 0.21813,-0.211941 0.0522756,-0.0462598 0.137406,-0.123063 0.172469,-0.183937 0.0209646,-0.0363976 0.0304961,-0.0755394 0.0304961,-0.117516 0,-0.0878898 -0.0360118,-0.157811 -0.0985984,-0.218638 -0.0690551,-0.0671102 -0.150972,-0.096937 -0.24698,-0.096937 -0.0896024,0 -0.167941,0.0249291 -0.233803,0.0864094 -0.0786732,0.0734488 -0.112748,0.195929 -0.128898,0.29865l-0.0159685 0.101591 -0.503953 -0.0604409 0.013 -0.106142c0.026622,-0.217366 0.105524,-0.421232 0.272543,-0.568846 0.165693,-0.146437 0.374528,-0.200768 0.592165,-0.200768 0.229091,0 0.448268,0.057878 0.620228,0.215051 0.155386,0.142028 0.239276,0.31989 0.239276,0.53098 0,0.118374 -0.0278858,0.231067 -0.0854882,0.334484 -0.0700197,0.125717 -0.196469,0.247949 -0.303394,0.342705 -0.0513346,0.0454921 -0.128059,0.111677 -0.168476,0.166965 -0.0222047,0.030374 -0.0371654,0.064752 -0.0470315,0.100945zm0.0130315 0.905094l-0.54065 0 0 -0.541201 0.54065 0 0 0.541201z"/>
  <path class="fil2" d="M4.2223 2.31401c0,-0.177299 -0.0681929,-0.327866 -0.204575,-0.452248 -0.136382,-0.124929 -0.319138,-0.187118 -0.548264,-0.187118 -0.216028,0 -0.390055,0.0578268 -0.521528,0.174028 -0.131476,0.116197 -0.210579,0.283673 -0.237307,0.50189l0.295677 0.0354606c0.0256417,-0.163118 0.0791024,-0.283134 0.16148,-0.360055 0.0818307,-0.076374 0.183846,-0.115106 0.306591,-0.115106 0.126563,0 0.234031,0.0425512 0.321319,0.12711 0.0872835,0.0851024 0.130925,0.183299 0.130925,0.29513 0,0.0616457 -0.0147244,0.118929 -0.0447323,0.170752 -0.0300039,0.052374 -0.094378,0.122201 -0.194209,0.210579 -0.0992874,0.0878307 -0.168571,0.154386 -0.20676,0.200209 -0.0523701,0.0632835 -0.0900118,0.125476 -0.113472,0.187118 -0.032185,0.0818346 -0.0480039,0.179484 -0.0480039,0.292409 0,0.0190906 0.000547244,0.0480039 0.0016378,0.0861929l0.276583 0c0.00218504,-0.11511 0.00982283,-0.198028 0.0240039,-0.249311 0.0136378,-0.0507323 0.0349173,-0.0960118 0.0638307,-0.135835 0.0289094,-0.0392795 0.0900118,-0.100378 0.183843,-0.183846 0.139657,-0.123287 0.232945,-0.228579 0.280953,-0.314776 0.0480079,-0.0861929 0.0720079,-0.180567 0.0720079,-0.282583zm-0.591358 1.74353l0 -0.32787 -0.327319 0 0 0.32787 0.327319 0z"/>
 </g>
</svg>
