<?xml version="1.0" encoding="UTF-8"?>
<!DOCTYPE svg PUBLIC "-//W3C//DTD SVG 1.1//EN" "http://www.w3.org/Graphics/SVG/1.1/DTD/svg11.dtd">
<!-- Creator: CorelDRAW -->
<svg xmlns="http://www.w3.org/2000/svg" xml:space="preserve" width="6.82666in" height="6.82666in" style="shape-rendering:geometricPrecision; text-rendering:geometricPrecision; image-rendering:optimizeQuality; fill-rule:evenodd; clip-rule:evenodd"
viewBox="0 0 6.82666 6.82666"
 xmlns:xlink="http://www.w3.org/1999/xlink">
 <defs>
  <style type="text/css">
   <![CDATA[
    .fil0 {fill:none}
    .fil1 {fill:#424242}
    .fil2 {fill:#64B5F6}
   ]]>
  </style>
 </defs>
 <g id="Layer_x0020_1">
  <metadata id="CorelCorpID_0Corel-Layer"/>
  <rect class="fil0" width="6.82666" height="6.82666"/>
  <rect class="fil0" x="0.853331" y="0.853331" width="5.12" height="5.12"/>
  <path class="fil1" d="M5.14809 1.67857c0.443969,0.443972 0.718575,1.05731 0.718575,1.73476 0,0.677457 -0.274606,1.29079 -0.718575,1.73476 -0.443972,0.443969 -1.05731,0.718575 -1.73476,0.718575 -0.677457,0 -1.29079,-0.274606 -1.73476,-0.718575 -0.443969,-0.443972 -0.718575,-1.05731 -0.718575,-1.73476 0,-0.677457 0.274606,-1.29079 0.718575,-1.73476 0.443972,-0.443969 1.05731,-0.718575 1.73476,-0.718575 0.677457,0 1.29079,0.274606 1.73476,0.718575zm-1.36238 1.73476l1.26962 1.26962 -0.372386 0.372386 -1.26962 -1.26962 -1.26962 1.26962 -0.372386 -0.372386 1.26962 -1.26962 -1.26963 -1.26963 0.372386 -0.372386 1.26963 1.26963 1.26963 -1.26963 0.372386 0.372386 -1.26963 1.26963z"/>
  <polygon class="fil2" points="3.63487,3.41333 4.90449,4.68295 4.68295,4.90449 3.41333,3.63487 2.14371,4.90449 1.92217,4.68295 3.19179,3.41333 1.92217,2.1437 2.1437,1.92217 3.41333,3.19179 4.68296,1.92217 4.9045,2.1437 "/>
 </g>
</svg>
