<?xml version="1.0" encoding="UTF-8"?>
<!DOCTYPE svg PUBLIC "-//W3C//DTD SVG 1.1//EN" "http://www.w3.org/Graphics/SVG/1.1/DTD/svg11.dtd">
<!-- Creator: CorelDRAW -->
<svg xmlns="http://www.w3.org/2000/svg" xml:space="preserve" width="6.82666in" height="6.82666in" style="shape-rendering:geometricPrecision; text-rendering:geometricPrecision; image-rendering:optimizeQuality; fill-rule:evenodd; clip-rule:evenodd"
viewBox="0 0 6.82666 6.82666"
 xmlns:xlink="http://www.w3.org/1999/xlink">
 <defs>
  <style type="text/css">
   <![CDATA[
    .fil0 {fill:none}
    .fil1 {fill:#424242}
    .fil2 {fill:#64B5F6;fill-rule:nonzero}
   ]]>
  </style>
 </defs>
 <g id="Layer_x0020_1">
  <metadata id="CorelCorpID_0Corel-Layer"/>
  <rect class="fil0" width="6.82666" height="6.82666"/>
  <rect class="fil0" x="0.853331" y="0.853331" width="5.12" height="5.12"/>
  <path class="fil1" d="M4.32008 5.23081c0.579063,-0.32952 0.95876,-0.909524 1.03496,-1.57764 0.0847598,-0.743114 -0.220413,-1.45319 -0.819724,-1.90169 -0.921402,-0.689559 -2.2285,-0.501236 -2.91802,0.420118 -0.229839,0.307114 -0.372079,0.663516 -0.407579,1.04598 -0.0330433,0.355949 0.0289882,0.716839 0.173965,1.04326 0.300654,0.676925 0.918091,1.14126 1.65539,1.2293l0.0495787 0.00591732 -0.0367283 0.310972 -0.0497087 -0.00593701c-0.846972,-0.101142 -1.55735,-0.634335 -1.90331,-1.41181 -0.16711,-0.375555 -0.238535,-0.790839 -0.200634,-1.20048 0.0407402,-0.440299 0.204366,-0.851047 0.468972,-1.20462 0.793445,-1.06022 2.29532,-1.27616 3.3555,-0.482756 0.346154,0.259055 0.61528,0.598504 0.780051,0.998772 0.153642,0.373236 0.208547,0.782661 0.163614,1.18349 -0.0880197,0.78524 -0.541598,1.46569 -1.2316,1.84125l0.259075 0.110807 -0.12248 0.287843 -0.750551 -0.321016 0.0614331 -0.143626 0.259358 -0.60639 0.287843 0.12248 -0.109398 0.25578z"/>
  <path class="fil2" d="M3.66614 4.9671c0.015185,0.0568386 0.0735787,0.0906024 0.130417,0.0754173 0.0568386,-0.015185 0.0906024,-0.0735787 0.0754173,-0.130417l-0.46239 -1.72567 -0.102917 0.0275 0.103031 -0.0276063c-0.0152441,-0.0569016 -0.0737362,-0.0906693 -0.130638,-0.0754252 -0.048248,0.0129252 -0.0798543,0.0569449 -0.079063,0.104724l0 2.02497c0,0.0589094 0.0477598,0.106669 0.106669,0.106669 0.0589094,0 0.106669,-0.0477598 0.106669,-0.106669l0 -1.21697 0.252803 0.94348z"/>
 </g>
</svg>
