<?xml version="1.0" encoding="UTF-8"?>
<!DOCTYPE svg PUBLIC "-//W3C//DTD SVG 1.1//EN" "http://www.w3.org/Graphics/SVG/1.1/DTD/svg11.dtd">
<!-- Creator: CorelDRAW -->
<svg xmlns="http://www.w3.org/2000/svg" xml:space="preserve" width="6.82666in" height="6.82666in" style="shape-rendering:geometricPrecision; text-rendering:geometricPrecision; image-rendering:optimizeQuality; fill-rule:evenodd; clip-rule:evenodd"
viewBox="0 0 6.82666 6.82666"
 xmlns:xlink="http://www.w3.org/1999/xlink">
 <defs>
  <style type="text/css">
   <![CDATA[
    .fil0 {fill:none}
    .fil1 {fill:#424242}
    .fil2 {fill:#64B5F6}
   ]]>
  </style>
 </defs>
 <g id="Layer_x0020_1">
  <metadata id="CorelCorpID_0Corel-Layer"/>
  <rect class="fil0" x="0.853331" y="0.853331" width="5.12" height="5.12"/>
  <rect class="fil0" width="6.82666" height="6.82666"/>
  <path class="fil1" d="M0.906661 1.38666l5.01334 0 0 4.05334 -5.01334 0 0 -4.05334zm1.27487 2.18474c-0.0191969,-0.0420748 -0.0512756,-0.0752047 -0.0959803,-0.098874 -0.0447008,-0.0239252 -0.0972913,-0.0360236 -0.157772,-0.0360236 -0.0986063,0 -0.180386,0.0376024 -0.245075,0.112543l0 -0.405209 -0.138575 0 0 1.12939 0.138575 0 0 -0.447547c0,-0.0641614 0.00762598,-0.11465 0.0231417,-0.150937 0.015252,-0.0365512 0.0410197,-0.0654764 0.0773071,-0.0867756 0.0362874,-0.0212992 0.0749449,-0.0320787 0.115965,-0.0320787 0.0549567,0 0.0975551,0.0160394 0.127531,0.0475945 0.0299764,0.0315551 0.0449646,0.0820433 0.0449646,0.151197l0 0.518547 0.138843 0 0 -0.518547c0,-0.079937 -0.00973228,-0.141205 -0.0289252,-0.183276zm2.87855 0.72102l0.326587 -1.16778 -0.110965 0 -0.327378 1.16778 0.111756 0zm-0.438343 0l0.326587 -1.16778 -0.110965 0 -0.327378 1.16778 0.111756 0zm-0.249543 -0.0191969l0 -0.158035 -0.158035 0 0 0.158035 0.158035 0zm0 -0.66028l0 -0.157772 -0.158035 0 0 0.157772 0.158035 0zm-0.525642 -0.122535c-0.0533819,-0.0357598 -0.114913,-0.0539055 -0.184858,-0.0539055 -0.053378,0 -0.0988701,0.0105197 -0.136209,0.0312913 -0.0376024,0.0207756 -0.0712598,0.0520669 -0.100976,0.0936142l0 -0.106236 -0.126217 0 0 1.13149 0.138575 0 0 -0.39811c0.0236693,0.0297126 0.0536457,0.0544291 0.0904567,0.0738898 0.036815,0.0194567 0.0780984,0.029185 0.124378,0.029185 0.0631102,0 0.123327,-0.017878 0.18065,-0.053378 0.0573228,-0.0357638 0.100976,-0.0870394 0.130953,-0.154091 0.0302402,-0.0670551 0.0452283,-0.142524 0.0452283,-0.226142 0,-0.0780984 -0.0136732,-0.149882 -0.0410236,-0.215358 -0.0270827,-0.0654764 -0.067315,-0.116228 -0.120957,-0.152252zm-0.422831 0.37839c0,-0.105181 0.0226142,-0.185646 0.0681063,-0.240862 0.0454882,-0.0552205 0.0978189,-0.0828307 0.15698,-0.0828307 0.0594291,0 0.110705,0.0260315 0.153567,0.0778346 0.0428622,0.052063 0.0644252,0.129898 0.0644252,0.234291 0,0.109386 -0.0220906,0.190114 -0.0660039,0.242181 -0.0439134,0.0523268 -0.0967677,0.0783583 -0.158295,0.0783583 -0.0604803,0 -0.112283,-0.0252441 -0.154882,-0.0754685 -0.0425984,-0.0504843 -0.0638976,-0.128319 -0.0638976,-0.233504zm-0.400476 -0.413626l0 -0.285831 -0.138051 0.0830945 0 0.202736 -0.101764 0 0 0.107811 0.101764 0 0 0.470689c0,0.0830945 0.00578346,0.137787 0.0170906,0.163559 0.0113071,0.0260315 0.0307677,0.0470669 0.058378,0.0628425 0.0278701,0.0160433 0.0667874,0.0239291 0.117276,0.0239291 0.0307677,0 0.0657402,-0.00420472 0.104657,-0.0123583l-0.0199843 -0.122535c-0.0252441,0.0036811 -0.0454921,0.00552362 -0.0610079,0.00552362 -0.0205079,0 -0.0362874,-0.00342126 -0.0473307,-0.00999213 -0.0110433,-0.00683858 -0.0189331,-0.0157795 -0.0239291,-0.0270866 -0.00473228,-0.0113071 -0.00709843,-0.0365512 -0.00709843,-0.0762559l0 -0.478315 0.139366 0 0 -0.107811 -0.139366 0zm-0.438343 0l0 -0.285831 -0.138051 0.0830945 0 0.202736 -0.101764 0 0 0.107811 0.101764 0 0 0.470689c0,0.0830945 0.00578346,0.137787 0.0170906,0.163559 0.0113071,0.0260315 0.0307677,0.0470669 0.058378,0.0628425 0.0278701,0.0160433 0.0667874,0.0239291 0.117276,0.0239291 0.0307677,0 0.0657402,-0.00420472 0.104657,-0.0123583l-0.0199843 -0.122535c-0.0252441,0.0036811 -0.0454921,0.00552362 -0.0610079,0.00552362 -0.0205079,0 -0.0362874,-0.00342126 -0.0473307,-0.00999213 -0.0110433,-0.00683858 -0.0189331,-0.0157795 -0.0239291,-0.0270866 -0.00473228,-0.0113071 -0.00709843,-0.0365512 -0.00709843,-0.0762559l0 -0.478315 0.139366 0 0 -0.107811 -0.139366 0zm3.22843 -1.21518l-4.79999 0 0 -0.746657 4.79999 0 0 0.746657z"/>
  <path class="fil2" d="M5.70666 2.13333l0 -0.533327 -4.58666 0 0 0.533327 4.58666 0zm-3.89333 -0.382098c0.0760591,0 0.137717,0.0616575 0.137717,0.137717 0,0.0760591 -0.0616575,0.137717 -0.137717,0.137717 -0.0760591,0 -0.137717,-0.0616575 -0.137717,-0.137717 0,-0.0760591 0.0616575,-0.137717 0.137717,-0.137717zm-0.428583 0c0.0760591,0 0.137717,0.0616575 0.137717,0.137717 0,0.0760591 -0.0616575,0.137717 -0.137717,0.137717 -0.0760591,0 -0.137717,-0.0616575 -0.137717,-0.137717 0,-0.0760591 0.0616575,-0.137717 0.137717,-0.137717z"/>
 </g>
</svg>
