<?xml version="1.0" encoding="UTF-8"?>
<!DOCTYPE svg PUBLIC "-//W3C//DTD SVG 1.1//EN" "http://www.w3.org/Graphics/SVG/1.1/DTD/svg11.dtd">
<!-- Creator: CorelDRAW -->
<svg xmlns="http://www.w3.org/2000/svg" xml:space="preserve" width="6.82666in" height="6.82666in" style="shape-rendering:geometricPrecision; text-rendering:geometricPrecision; image-rendering:optimizeQuality; fill-rule:evenodd; clip-rule:evenodd"
viewBox="0 0 6.82666 6.82666"
 xmlns:xlink="http://www.w3.org/1999/xlink">
 <defs>
  <style type="text/css">
   <![CDATA[
    .fil0 {fill:none}
    .fil2 {fill:#424242}
    .fil3 {fill:#64B5F6}
    .fil1 {fill:#64B5F6;fill-rule:nonzero}
   ]]>
  </style>
 </defs>
 <g id="Layer_x0020_1">
  <metadata id="CorelCorpID_0Corel-Layer"/>
  <rect class="fil0" width="6.82666" height="6.82666"/>
  <rect class="fil0" x="0.853331" y="0.853331" width="5.12" height="5.12"/>
  <path class="fil1" d="M4.03833 2.50083c0.0262323,0.0524646 0.0900354,0.0737323 0.1425,0.0475 0.0524646,-0.0262323 0.0737323,-0.0900354 0.0475,-0.1425l-0.72 -1.44c0.00700787,-0.00353937 -0.0578189,-0.0903543 -0.142705,-0.0479055 -0.0246378,0.0123189 -0.0424213,0.0328898 -0.051685,0.056685l-0.71561 1.43122c-0.0262323,0.0524646 -0.00496457,0.116268 0.0475,0.1425 0.0524646,0.0262323 0.116268,0.00496457 0.1425,-0.0475l0.625 -1.25 0.625 1.25z"/>
  <path class="fil2" d="M4.72 2.16833l0 3.57c0,0.0496811 -0.0204843,0.0950709 -0.0534921,0.128173l0.000208661 0.000208661c-0.032874,0.032874 -0.0783228,0.0532835 -0.12839,0.0532835l-2.25 0c-0.0495827,0 -0.094878,-0.0204016 -0.127965,-0.0532835l-0.000208661 -0.000208661 -0.000204724 -0.000212598c-0.0328858,-0.0330827 -0.0532874,-0.078378 -0.0532874,-0.127961l0 -3.57c0,-0.0500709 0.0204094,-0.0955118 0.0532835,-0.128386l0.000208661 0.000208661c0.0331024,-0.0330079 0.0784843,-0.0534921 0.128173,-0.0534921l0.400331 0 -0.185736 0.371469c-0.0525512,0.105106 -0.00990551,0.233051 0.0952047,0.285606 0.105106,0.0525512 0.233051,0.00990551 0.285606,-0.0952047l0.280937 -0.56187 0.497319 0 0.280933 0.56187c0.0525551,0.10511 0.1805,0.147756 0.285606,0.0952047 0.10511,-0.0525551 0.147756,-0.1805 0.0952047,-0.285606l-0.185736 -0.371469 0.400327 0c0.0500669,0 0.0955157,0.0204094 0.12839,0.0532835 0.032874,0.032874 0.0532835,0.078315 0.0532835,0.128386zm-0.612917 1.84078c0.00415748,0.29715 -0.174949,0.705012 -0.660921,1.05257l-0.0468622 0.0335118 -0.0468583 -0.0335118c-0.476811,-0.341004 -0.644732,-0.740122 -0.63237,-1.0366 0.00448031,-0.107374 0.0323268,-0.202594 0.0778622,-0.278728 0.0480236,-0.0802953 0.115783,-0.139732 0.197217,-0.171039 0.126402,-0.0485984 0.281209,-0.0279724 0.439256,0.0903504 0.151835,-0.114264 0.29726,-0.137366 0.415299,-0.0949606 0.0797126,0.0286378 0.144803,0.0862638 0.189728,0.165531 0.0419213,0.0739528 0.0661772,0.167209 0.0676496,0.272878z"/>
  <path class="fil3" d="M3.3993 4.96396c0.184654,-0.134421 0.354291,-0.301803 0.468657,-0.500638 0.0776614,-0.135024 0.134665,-0.295256 0.132469,-0.45272 -0.00105906,-0.0756693 -0.0161417,-0.155343 -0.0537913,-0.221768 -0.0304134,-0.0536575 -0.0744252,-0.0967047 -0.132996,-0.117744 -0.110295,-0.039626 -0.227303,0.0137323 -0.315098,0.0798031l-0.0639724 0.0481417 -0.0640906 -0.0479843c-0.095689,-0.0716339 -0.219024,-0.121551 -0.337055,-0.0761772 -0.0620472,0.0238583 -0.11013,0.069685 -0.143949,0.126232 -0.0408504,0.0682953 -0.0595394,0.149476 -0.0628346,0.228421 -0.00645276,0.154748 0.0447126,0.311339 0.119343,0.445224 0.108685,0.194976 0.273772,0.358402 0.453319,0.489209z"/>
 </g>
</svg>
