<?xml version="1.0" encoding="UTF-8"?>
<!DOCTYPE svg PUBLIC "-//W3C//DTD SVG 1.1//EN" "http://www.w3.org/Graphics/SVG/1.1/DTD/svg11.dtd">
<!-- Creator: CorelDRAW -->
<svg xmlns="http://www.w3.org/2000/svg" xml:space="preserve" width="6.82666in" height="6.82666in" style="shape-rendering:geometricPrecision; text-rendering:geometricPrecision; image-rendering:optimizeQuality; fill-rule:evenodd; clip-rule:evenodd"
viewBox="0 0 6.82666 6.82666"
 xmlns:xlink="http://www.w3.org/1999/xlink">
 <defs>
  <style type="text/css">
   <![CDATA[
    .fil0 {fill:none}
    .fil2 {fill:none;fill-rule:nonzero}
    .fil1 {fill:#424242;fill-rule:nonzero}
    .fil3 {fill:#64B5F6;fill-rule:nonzero}
   ]]>
  </style>
 </defs>
 <g id="Layer_x0020_1">
  <metadata id="CorelCorpID_0Corel-Layer"/>
  <rect class="fil0" width="6.82666" height="6.82666"/>
  <rect class="fil0" x="0.853331" y="0.853331" width="5.12" height="5.12"/>
  <path class="fil1" d="M3.15056 3.9323c0.0356654,-0.0467126 0.0267126,-0.1135 -0.02,-0.149165 -0.0467126,-0.0356654 -0.1135,-0.0267126 -0.149165,0.02l-1.44498 1.89228c-0.0356654,0.0467126 -0.0267126,0.1135 0.02,0.149165 0.0467126,0.0356654 0.1135,0.0267126 0.149165,-0.02l1.44498 -1.89228z"/>
  <line class="fil2" x1="5.81752" y1="2.26863" x2="5.81753" y2= "2.26864" />
  <path class="fil1" d="M3.88404 0.792193l1.93348 1.47644 1.1811e-005 1.1811e-005c0.0421457,0.032185 0.0682441,0.0780276 0.0763268,0.125925 0.00847244,0.0502244 -0.00271654,0.102941 -0.0356142,0.146028l-7.87402e-006 1.1811e-005 -0.17202 0.225268 -3.93701e-006 7.87402e-006c-0.0328504,0.0430079 -0.0809016,0.0676772 -0.131854,0.0727559 -0.0482047,0.00479921 -0.0991575,-0.00827953 -0.141228,-0.0404016l-7.87402e-006 -3.93701e-006 -1.93349 -1.47644c-0.0421575,-0.0321929 -0.068252,-0.0780315 -0.0763346,-0.125937 -0.00847244,-0.0502244 0.00272835,-0.102949 0.0356181,-0.146035l0.172024 -0.225272 3.93701e-006 -7.87402e-006c0.0328504,-0.0430118 0.0809055,-0.0676772 0.131854,-0.0727559 0.0482008,-0.00480709 0.0991575,0.00827953 0.141232,0.0404016l1.1811e-005 7.87402e-006z"/>
  <polygon class="fil3" points="5.09697,2.69102 4.18587,3.88416 2.7552,2.79168 3.6663,1.59855 "/>
  <line class="fil2" x1="4.24123" y1="4.65817" x2="4.24122" y2= "4.65817" />
  <path class="fil1" d="M3.96813 4.69051l-1.93348 -1.47644c-0.0421614,-0.0321969 -0.068252,-0.0780315 -0.0763346,-0.125937 -0.00847244,-0.0502205 0.00272835,-0.102957 0.0356181,-0.146031l0.172024 -0.225276 3.93701e-006 -7.87402e-006c0.0328504,-0.0430118 0.0809055,-0.0676772 0.131854,-0.0727559 0.0482008,-0.00479528 0.0991654,0.00828346 0.141228,0.0404016l7.87402e-006 3.93701e-006 1.93349 1.47644c0.0421614,0.0321969 0.068252,0.0780394 0.0763346,0.125937 0.00847244,0.0502283 -0.00272835,0.102961 -0.0356181,0.146035l-0.172028 0.225276 -1.1811e-005 1.1811e-005c-0.0328504,0.0430079 -0.0808937,0.0676693 -0.131843,0.072748 -0.0481969,0.00480709 -0.0991575,-0.00827953 -0.141232,-0.0404016l-1.1811e-005 -7.87402e-006z"/>
 </g>
</svg>
