<?xml version="1.0" encoding="UTF-8"?>
<!DOCTYPE svg PUBLIC "-//W3C//DTD SVG 1.1//EN" "http://www.w3.org/Graphics/SVG/1.1/DTD/svg11.dtd">
<!-- Creator: CorelDRAW -->
<svg xmlns="http://www.w3.org/2000/svg" xml:space="preserve" width="6.82666in" height="6.82666in" style="shape-rendering:geometricPrecision; text-rendering:geometricPrecision; image-rendering:optimizeQuality; fill-rule:evenodd; clip-rule:evenodd"
viewBox="0 0 6.82666 6.82666"
 xmlns:xlink="http://www.w3.org/1999/xlink">
 <defs>
  <style type="text/css">
   <![CDATA[
    .fil2 {fill:none}
    .fil0 {fill:#424242}
    .fil1 {fill:#64B5F6}
   ]]>
  </style>
 </defs>
 <g id="Layer_x0020_1">
  <metadata id="CorelCorpID_0Corel-Layer"/>
  <g id="_624228608">
   <path id="_624228416" class="fil0" d="M0.906661 1.38666l5.01334 0 0 4.05334 -5.01334 0 0 -4.05334zm3.43763 2.34584l3.93701e-006 0 0 0.0377795 0 0.0199803 0.000708661 0.000826772 -0.000708661 0.000602362 0 0.909354 0 0.0377795 -1.82485 0 -0.0377795 0 0 -0.0377795 0 -0.930764 0 -0.0377795 0.931205 -0.793512 0.931421 0.793512zm-1.72454 0.0755551l0.79335 0.677394 0.795984 -0.677394 -1.58933 0zm3.19358 -1.56807l-4.79999 0 0 -0.746657 4.79999 0 0 0.746657z"/>
   <path id="_624228728" class="fil1" d="M5.70666 2.13333l0 -0.533327 -4.58666 0 0 0.533327 4.58666 0zm-3.89333 -0.382098c0.0760591,0 0.137717,0.0616575 0.137717,0.137717 0,0.0760591 -0.0616575,0.137717 -0.137717,0.137717 -0.0760591,0 -0.137717,-0.0616575 -0.137717,-0.137717 0,-0.0760591 0.0616575,-0.137717 0.137717,-0.137717zm-0.428583 0c0.0760591,0 0.137717,0.0616575 0.137717,0.137717 0,0.0760591 -0.0616575,0.137717 -0.137717,0.137717 -0.0760591,0 -0.137717,-0.0616575 -0.137717,-0.137717 0,-0.0760591 0.0616575,-0.137717 0.137717,-0.137717z"/>
  </g>
  <rect class="fil2" width="6.82666" height="6.82666"/>
  <rect class="fil2" x="0.853331" y="0.853331" width="5.12" height="5.12"/>
 </g>
</svg>
